/* XPM */
static char *result[] = {
/* columns rows colors chars-per-pixel */
"64 64 196 2 ",
"   c #972A00",
".  c #943A03",
"X  c #9C4401",
"o  c #9E4B00",
"O  c #9F5100",
"+  c #9E4610",
"@  c #A04705",
"#  c #A14D02",
"$  c #A0470C",
"%  c #B94A00",
"&  c #A35201",
"*  c #A95401",
"=  c #AA5C00",
"-  c #AD530A",
";  c #AB5E0B",
":  c #A1510D",
">  c #B75D00",
",  c #BA5D03",
"<  c #BE570E",
"1  c #BC5C0E",
"2  c #B85505",
"3  c #A14911",
"4  c #A04710",
"5  c #BB5C11",
"6  c #AF6300",
"7  c #AC600B",
"8  c #B66300",
"9  c #BB6501",
"0  c #BC6B00",
"q  c #BD610B",
"w  c #BB6D0D",
"e  c #BF7000",
"r  c #B06624",
"t  c #B1682E",
"y  c #B26330",
"u  c #C55B00",
"i  c #CA5D00",
"p  c #C25908",
"a  c #C15D12",
"s  c #C85F11",
"d  c #CA6500",
"f  c #C16B00",
"g  c #CD6A00",
"h  c #C36200",
"j  c #D26D00",
"k  c #C47200",
"l  c #C97700",
"z  c #C77B05",
"x  c #C97A00",
"c  c #C07208",
"v  c #CA7C0A",
"b  c #D57801",
"n  c #C46412",
"m  c #CA6513",
"M  c #C66B13",
"N  c #CC6A14",
"B  c #D16D16",
"V  c #CC7115",
"C  c #D27317",
"Z  c #D47618",
"A  c #D87B19",
"S  c #CA7E2D",
"D  c #BC7B64",
"F  c #CF8102",
"G  c #CC8008",
"H  c #D38502",
"J  c #D58803",
"K  c #DC8C00",
"L  c #D38608",
"P  c #D5880B",
"I  c #D88906",
"U  c #DE9200",
"Y  c #D98D12",
"T  c #D4851A",
"R  c #DA831B",
"E  c #D68A1C",
"W  c #D98D1C",
"Q  c #D18313",
"!  c #DB921C",
"~  c #E28D00",
"^  c #E39600",
"/  c #E59A00",
"(  c #E3930C",
")  c #E69B0F",
"_  c #E89700",
"`  c #F29800",
"'  c #F2990C",
"]  c #E18F1E",
"[  c #E59B12",
"{  c #E99E16",
"}  c #E1961D",
"|  c #E49A1E",
" . c #E99E1E",
".. c #E39514",
"X. c #E9A114",
"o. c #D58929",
"O. c #CF8430",
"+. c #D78C31",
"@. c #D2883D",
"#. c #E49620",
"$. c #E69C21",
"%. c #E89E23",
"&. c #E69D2D",
"*. c #E99F2D",
"=. c #E89635",
"-. c #E59D34",
";. c #E69D3B",
":. c #E79A35",
">. c #F39C2A",
",. c #EAA123",
"<. c #E9A03C",
"1. c #E9A136",
"2. c #CB8344",
"3. c #D38A44",
"4. c #D48C4C",
"5. c #CE8A5A",
"6. c #CF805C",
"7. c #D38D54",
"8. c #D38D5B",
"9. c #D89151",
"0. c #D6915A",
"q. c #DB955D",
"w. c #DF995C",
"e. c #E39B45",
"r. c #EA9D5C",
"t. c #E79955",
"y. c #E9A145",
"u. c #E9A24B",
"i. c #E6A25E",
"p. c #EBA65C",
"a. c #ECA85D",
"s. c #D48467",
"d. c #D98967",
"f. c #DB8B6A",
"g. c #D79365",
"h. c #DA9663",
"j. c #DE9963",
"k. c #DA946A",
"l. c #DE8476",
"z. c #DF8779",
"x. c #DF9F79",
"c. c #E18E6D",
"v. c #E99F67",
"b. c #E09268",
"n. c #E0877A",
"m. c #EBA464",
"M. c #EDA964",
"N. c #EAA16A",
"B. c #ECAA6A",
"V. c #F8A967",
"C. c #F9A96D",
"Z. c #F4AA67",
"A. c #EEAD75",
"S. c #E1A078",
"D. c #F1AE76",
"F. c #EFB07E",
"G. c #F1B17D",
"H. c #E28F81",
"J. c #E28F89",
"K. c #E89E92",
"L. c #E4A583",
"P. c #EAAA85",
"I. c #F0AD88",
"U. c #F3B589",
"Y. c #FFB88F",
"T. c #F8B58A",
"R. c #EAA197",
"E. c #FAAF9A",
"W. c #ECB39D",
"Q. c #F0B69B",
"!. c #F5BB9C",
"~. c #FEADA1",
"^. c #EEB7A5",
"/. c #FEB1A5",
"(. c #F5BDA6",
"). c #FFB3AA",
"_. c #F3BDAC",
"`. c #FFB9AF",
"'. c #F5BCB1",
"]. c #FFBDB0",
"[. c #F9C1A6",
"{. c #FCC5AD",
"}. c #F6C1B3",
"|. c #FAC5B4",
" X c #FDC8B4",
".X c #F6C2B9",
"XX c #FCC6BC",
"oX c #FDC9BC",
"OX c #FFCEC5",
"+X c #FFCFC8",
"@X c #FBC7C1",
"#X c #FFD1C7",
"$X c #FFD2CB",
"%X c #FFD6D3",
"&X c #FFD8D5",
"*X c None",
/* pixels */
"*X*X*X*X*X*X*X*X*X*X*X*X*X*X*X*X*X*X*X*X*X*X*X*X*X*X*X*X*X*X*X*X*X*X*X*X*X*X*X*X*X*X*X*X*X*X*X*X*X*X*X*X*X*X*X*X*X*X*X*X*X*X*X*X",
"*X*X*X*X*X*X*X*X*X*X*X*X*X*X*X*X*X*X*X*X*X*X*X*X*X*X*X*X*X*X*X*X*X*X*X*X*X*X*X*X*X*X*X*X*X*X*X*X*X*X*X*X*X*X*X*X*X*X*X*X*X*X*X*X",
"*X*X*X*X*X*X*X*X*X*X*X*X*X*X*X*X*X*X*X*X*X*X*X*X*X*X*X*X*X*X*X*X*X*X*X*X*X*X*X*X*X*X*X*X*X*X*X*X*X*X*X*X*X*X*X*X*X*X*X*X*X*X*X*X",
"*X*X*X*X*X*X*X*X*X*X*X*X*X*X*X*X*X*X*X*X*X*X*X*X*X*X*X*X*X*X*X*X*X*X*X*X*X*X*X*X*X*X*X*X*X*X*X*X*X*X*X*X*X*X*X*X*X*X*X*X*X*X*X*X",
"*X*X*X*X*X*X*X*X*X*X*X*X*X*X*X*X*X*X*X*X*X*X*X*XH.H.H.H.H.H.H.H.H.H.H.H.H.H.H.H.*X*X*X*X*X*X*X*X*X*X*X*X*X*X*X*X*X*X*X*X*X*X*X*X",
"*X*X*X*X*X*X*X*X*X*X*X*X*X*X*X*X*X*X*X*X*X*X*X*XR.].)././.)././././././.).).|.R.*X*X*X*X*X*X*X*X*X*X*X*X*X*X*X*X*X*X*X*X*X*X*X*X",
"*X*X*X*X*X*X*X*X*X*X*X*X*X*X*X*X*X*XH.H.H.H.n.K.'.OXoX@XoXXX@X@XXXXXXX@XOX+X$X'.k.f x x x x *X*X*X*X*X*X*X*X*X*X*X*X*X*X*X*X*X*X",
"*X*X*X*X*X*X*X*X*X*X*X*X*X*X*X*X*X*XR.].).~.~.].OX$X$X#X#X$X#X$X$X$X$X#XoXoXoX(.r.~ ~ ~ ` H *X*X*X*X*X*X*X*X*X*X*X*X*X*X*X*X*X*X",
"*X*X*X*X*X*X*X*X*X*X*X*X*X*XH.H.n.K.'.OXoXXXXX@XOX+X#X#X+X+X#X#X+X#X%X@XU.p.B.a.<.^ U ^ _ K x f k k *X*X*X*X*X*X*X*X*X*X*X*X*X*X",
"*X*X*X*X*X*X*X*X*X*X*X*X*X*XR.`./.`.OX$X$X#X$X#X+X+X+X#X+X+X#X#X+XOXoX!.u.^ U ^ / 1.a.B.B.M.m.v.C.0.*X*X*X*X*X*X*X*X*X*X*X*X*X*X",
"*X*X*X*X*X*X*X*X*X*X*X*Xl.K.'.OX@X@XOX+X#X+X+XOXOX+X$X$X$X$X$X$X&XoXU.u.1./ [ ^ ^ u.!.oX|.|.}.}.oXQ.3., *X*X*X*X*X*X*X*X*X*X*X*X",
"*X*X*X*X*X*X*X*X*X*X*X*XK.XX#X$X$X#XOX+X+XOXOX+X#X@X.X_._.}.}.}.}.Q.e.K U #.[ 1.u.U.oX%X%X$X$X%X&X@XY.3.*X*X*X*X*X*X*X*X*X*X*X*X",
"*X*X*X*X*X*X*X*X*X*Xn.K._.+XOX+X+X+XOXOXOXOX$X$X&XoXx.O.3.4.4.4.7.@.x x H I ^ M.[.OX+X+X+X+XOX#X#XOXOXW.3., *X*X*X*X*X*X*X*X*X*X",
"*X*X*X*X*X*X*X*X*X*XK.XXOX$X#XOXOXOX#X+X#XOX.X}..X^.k.@.4.7.7.7.4.0.g.8.O.x K m._.@X+X#X+XOXOXOX+X#X%XOXY.3.*X*X*X*X*X*X*X*X*X*X",
"*X*X*X*X*X*X*X*XH.R.'.OXOX+XOX+XOX#X#X%X%XoXL.4.9.S.^.|.|..X.X.X.XoXoX^.0.l H o.3.P.oX%X%X$X+XOXOXOX#XOXOXW.0.k *X*X*X*X*X*X*X*X",
"*X*X*X*X*X*X*X*XH.].OX$X+XOXOX+X#XOX.X}..XW.2.> > 5..X&X#X XoXoXoXoX#X(.0.k k 0 8 2.^.}.'.|.OX+X+XOXOX#X&XoXC.f *X*X*X*X*X*X*X*X",
"*X*X*X*X*X*X*X*Xz./.XX$X#XOXOX#X%XoXL.7.j.7.r X . D '.#XU.p.M.B.B.B.B.i.+.k 6 & o r 8.j.7.L.XX%X#XOXOX+X&XoXr.h *X*X*X*X*X*X*X*X",
"*X*X*X*X*X*X*X*XK.`.@X#X#XOXOXOXoXW.3.f 0 8 * X   D .XoXp.U ^ ^ / ^ ^ U J w & . + * 8 f 0 3.W.oXOX+X+XOXoX(.P.7.*X*X*X*X*X*X*X*X",
"*X*X*X*X*X*XH.R.'.OXOX+X+X+X$X|.L.3.T k = * 2 , % s..XoXB.^ ^ [ [ [ X.[ J e & o < 2 * = k T 3.L..X$X%XoXF.A.|._.h.k *X*X*X*X*X*X",
"*X*X*X*X*X*XH.].OX$X+XOXOX+X%X'.7.0 k w # - V b j j..X XB.^ [ $.$.$.,.! I e O - V V - & w k f 7.}.$XoX!.&.<.{.|.V.k *X*X*X*X*X*X",
"*X*X*X*X*X*XH.).@X$X#XOXOX#X%XXXj.0 = & 2 N W ..U B..XoXB.^ [ $.$.$.,.! P e o ; W o.V 2 & = f j.oX#XU.u.$.&.B.M.=.l *X*X*X*X*X*X",
"*X*X*X*X*X*Xn./.XX$X#XOXOXOXoXW.7.8 * - N R $.X./ B.oXoXB.^ [ $.$.$.,.} P e o 7 } %.R N - * 8 8.^.(.u.^ / { ^ ^ ~ l *X*X*X*X*X*X",
"*X*X*X*X*X*Xn./.XX$X+X#X$X.XL.2.r * 2 V R $.$.[ / B.oXoXB.^ [ | $.$.,.! P e # ; ! ,.$.W V 2 * t 5.w.-./ | $.X.U ~ f *X*X*X*X*X*X",
"*X*X*X*X*X*XK.`.@X#XOX#X$X}.9.> X + a A $.,.$.[ ^ B.|.oXB.^ [ $.$.$.,.} I e # 7 W ,.,.#.A 5 + o 9 H U *.$.$.{ ;.m.g.*X*X*X*X*X*X",
"*X*X*X*XH.R.'.OXOX#XOX#X%XXXj.0 O X 5 Z } ,.$.[ ^ B.oXoXB.^ [ $.$.$.$.} L e O ; ! ,.,.} Z 5 X & e K } ,.%.[ / m.|.'.g.f *X*X*X*X",
"*X*X*X*XH.].OX$X#XOX+XOXXXW.7.8 * - M R ! ,.$.[ ^ B.|.XXB.^ [ $.$.$.,.} P e # 7 ! ,.,.! T M - = 0 G ! } $.[ ^ M.{.|.V.l *X*X*X*X",
"*X*X*X*XH.).@X$X#X#X$X.XL.2.r * 2 V W #.$.$.| [ ^ B.oXoXB.^ [ $.$.$.,.} I e o 7 E ,.,.| #.o.V 1 * 6 z Y #.$.[ <.M.m.=.l *X*X*X*X",
"*X*X*X*XH./.XX$X+X#X$X'.9.> o 4 n A #.,.,.$.$.[ ^ B.oXoXB.^ ) ,.$.$.%.} P e o 7 E ,.$.,.,.#.A a X O e L } $.%.[ / ^ ~ v *X*X*X*X",
"*X*X*X*XH./.@X#X+X+X$X}.h.9 & @ < Z #.$.$.$.$.[ ^ B.oXoXB.U [ | $.$.,.} P e o ; W ,.,.| ,.] Z < @ & e L } $.$. .{ ( ~ x *X*X*X*X",
"*X*X*X*XH./.XX$X#XOX$X}.h.0 # # M R #.$.$.$.$.[ ^ B.oXoXB.^ [ $.$.$.$.} P e # 7 W ,.,.| $.#.R M : * e L | %.$.$.%.| ( l *X*X*X*X",
"*X*X*X*XH./.oX$X+X#X$X}.h.0 # ; T $.$.$.$.$.$.[ ^ B.oX|.B.^ [ $.$.$.%.} P e o 7 W ,.$.$.$.$.$.T ; O e P } $.$.$.%.| ( x *X*X*X*X",
"*X*X*X*XH./.@X#X+XOX$X}.h.0 o ; ! ,.%.$.$.$.$.[ ^ B.oXoXB.^ [ $.$.$.,.! P k o 7 W ,.$.$.$.,.,.! 7 O e P } %.$.$.%.| ( x *X*X*X*X",
"*X*X*X*XH./.@X$XOX+X$X}.h.9 o ; } ,.$.$.$.| $.[ ^ B.oXoXB.^ [ $.$.$.$.} P e o 7 W ,.$.$.$.$.,.! 7 o e I } ,.$.$.$.} ( l *X*X*X*X",
"*X*X*X*XH./.XX#X#X#X$X}.j.0 o ; T $.$.$.$.,.$.[ ^ B.oXoXB.^ [ $.$.$.,.} P e o 7 W ,.$.,.$.$.$.T ; # e P } ,.$.$.,.| ( l *X*X*X*X",
"*X*X*X*XH./.XX$X+X+X$X}.h.0 & # M R #.,.,.,.$.[ ^ B.XX|.B.^ ) $.$.$.,.} I e # 7 W ,.$.$.,.$.R M & & e P } ,.$.$.$.| ( l *X*X*X*X",
"*X*X*X*XH./.@X$X#XOX$X}.q.9 & @ 5 C W #.} ! | [ ^ B.oXoXB.^ [ $.$.$.$.} P e o 7 ! ,.#.#.} W C < @ & e P ! ,.$.$.%.} ( l *X*X*X*X",
"*X*X*X*XH./.@X#X+X#X%X_.9.> o 3 n B Z Z C A #.X./ B.XXoXB.^ [ $.$.$.,.} P e o 7 ! %.T C Z Z C n + O e L ! ,.$.$.$.| ( x *X*X*X*X",
"*X*X*X*XH./.oX$X+XOX$X.XL.2.r * 1 n m m n B W ..U B.oX|.B./ [ $.$.$.,.} P e O ; E ] C s m m n q * 6 z Y } ,.$.$.$.| ( x *X*X*X*X",
"*X*X*X*XH.].OX$X#XOX+XOXoXW.7.8 * - n N N N V b g g..XoXB.^ [ $.$.$.%.! L e & : N Z N N N n - * 0 G ! | $.$.$.$.,. .' l *X*X*X*X",
"*X*X*X*XH.R.'.OXOXOXOX+X&X|.b.0 O X n B N N m i u d..XoXB./ [ $.$.$.,.} P e * # a N N N N n o O k P } ,.$.$.$.$. .} L x *X*X*X*X",
"*X*X*X*X*X*XK.].@X#XOX#X%X'.9.8 o + n B N N N d u d..XoXB./ [ | $.$.$.} P e & : n N N N B n @ O e I } $.$.$.$.| ..v *X*X*X*X*X*X",
"*X*X*X*X*X*Xn.~.@X#X+X+X$X|.L.2.r * 1 n N N N d i d..XoXB./ [ $.$.$.,.} P e & & n N N N n 1 * 6 z Y } ,.$. .{ ) ~ l *X*X*X*X*X*X",
"*X*X*X*X*X*XH.~.XX$X+XOX+XOXXXW.7.9 & - m B N g u d.XXoXB.^ [ $.$.$.$.} P e * # n B B m : * 0 G ! } $.$.%.[ / ^ ~ v *X*X*X*X*X*X",
"*X*X*X*X*X*XH.).@X#X+XOXOX#X%X.Xj.0 = & 1 n N g i f..XoXB./ [ $.$.$.,.} P e & & n N n q & 6 k J } ,.$.| ) ;.M.m.=.l *X*X*X*X*X*X",
"*X*X*X*X*X*XH.].OX$X+XOX+X+X$X}.7.f k w & - n g i f.@XOXA./ X.,.,.,.,.} P e & : m N - & w k k F / *.$.{ ^ M.|.|.V.k *X*X*X*X*X*X",
"*X*X*X*X*X*XH.R.'.OXOX+XOX+X$X|.L.3.T k = * 1 h 2 6.^.(.p.U ( ! } ! #.! P k O o 5 q * = k o.0.q.;.[ | [ ^ M.|._.h.k *X*X*X*X*X*X",
"*X*X*X*X*X*X*X*XK.].@X$X+XOXOXOXoXW.3.f 0 8 * @ X y 8.w.+.J J L P P P I J k = . + * 8 f 0 4.^.[.M.^ { } [ ;.m.k.*X*X*X*X*X*X*X*X",
"*X*X*X*X*X*X*X*Xz./.oX#X+XOXOX#X%XXXL.7.j.8.r o o = 8 0 e e e e e k e e k e 6 o o r 5.j.9.L.OXoXB.^ / [ %._ ~ f *X*X*X*X*X*X*X*X",
"*X*X*X*X*X*X*X*XH.].OX$X#XOXOX+X#XOX.X}.XXW.2.> 0 8 * o & & & & & & & & + = 9 0 > 2.W.XX}..X#X|.B.^ ^ ^ { %.` l *X*X*X*X*X*X*X*X",
"*X*X*X*X*X*X*X*XH.R.'.OXOX+XOXOXOX+X$X$X%XXXL.9.j.7.r o # & & & & & & & o r 7.j.9.L.oX&X$X$X%X|.M.^ a.M.<.U H l *X*X*X*X*X*X*X*X",
"*X*X*X*X*X*X*X*X*X*XK.XX#X$X+XOXOXOX+X+X#XOX}.}..XW.2.> 9 0 k c e e c 0 8 2.W..X}.|.@X#X+X$X%X Xu.1.{. XV.x *X*X*X*X*X*X*X*X*X*X",
"*X*X*X*X*X*X*X*X*X*Xl.K.'.OXOX+X+X+XOXOXOX+X$X%X&XXXL.9.k.q.+.H J J H E 3.L.oX%X%X$X+XOX+XOXoX(.A.F.|._.g.f *X*X*X*X*X*X*X*X*X*X",
"*X*X*X*X*X*X*X*X*X*X*X*XK.XXOX$X$X#X#XOX+XOX+X+X#XOX}.}.XX_.i.U ..U U e.W.oXOX#XOX+XOX+X%XoXG.D. X|.Y.4.*X*X*X*X*X*X*X*X*X*X*X*X",
"*X*X*X*X*X*X*X*X*X*X*X*Xl.K.'.OXXX@X+X+X+X+X+X#X+X#X%X$X#X(.a./ / 1.u.U.OX%XOXOXOX+X#XOXoX!.&.;.{._.4., *X*X*X*X*X*X*X*X*X*X*X*X",
"*X*X*X*X*X*X*X*X*X*X*X*X*X*XR.]./.].OX$X#X$X#X$X$X%X%XoXU.u./ ^ ^ u.!.oXOX#XOX#X$X$X%XoXT.y...#.V.g.*X*X*X*X*X*X*X*X*X*X*X*X*X*X",
"*X*X*X*X*X*X*X*X*X*X*X*X*X*XH.H.z.K.'.OX@XXXoXoX|.|.XX!.y.^ p.B.p.U.OX%X#XOX#XOXXX}.XX(.u.K x k k k *X*X*X*X*X*X*X*X*X*X*X*X*X*X",
"*X*X*X*X*X*X*X*X*X*X*X*X*X*X*X*X*X*XR.`.).).).E.D.m.M.p./ a.(.OXoXoX$X%X$X$X%X@XI.t.m.r.>.H *X*X*X*X*X*X*X*X*X*X*X*X*X*X*X*X*X*X",
"*X*X*X*X*X*X*X*X*X*X*X*X*X*X*X*X*X*XH.H.H.H.J.c.W _ ^ ^ _ m._.OXoXXX|.|.}.|.oX^.4.h f k l v *X*X*X*X*X*X*X*X*X*X*X*X*X*X*X*X*X*X",
"*X*X*X*X*X*X*X*X*X*X*X*X*X*X*X*X*X*X*X*X*X*X*X*XQ ` _ ~ ~ =.r.v.v.v.v.N.v.N.C.0.*X*X*X*X*X*X*X*X*X*X*X*X*X*X*X*X*X*X*X*X*X*X*X*X",
"*X*X*X*X*X*X*X*X*X*X*X*X*X*X*X*X*X*X*X*X*X*X*X*Xl l l l v l l k k k k f l k k k *X*X*X*X*X*X*X*X*X*X*X*X*X*X*X*X*X*X*X*X*X*X*X*X",
"*X*X*X*X*X*X*X*X*X*X*X*X*X*X*X*X*X*X*X*X*X*X*X*X*X*X*X*X*X*X*X*X*X*X*X*X*X*X*X*X*X*X*X*X*X*X*X*X*X*X*X*X*X*X*X*X*X*X*X*X*X*X*X*X",
"*X*X*X*X*X*X*X*X*X*X*X*X*X*X*X*X*X*X*X*X*X*X*X*X*X*X*X*X*X*X*X*X*X*X*X*X*X*X*X*X*X*X*X*X*X*X*X*X*X*X*X*X*X*X*X*X*X*X*X*X*X*X*X*X",
"*X*X*X*X*X*X*X*X*X*X*X*X*X*X*X*X*X*X*X*X*X*X*X*X*X*X*X*X*X*X*X*X*X*X*X*X*X*X*X*X*X*X*X*X*X*X*X*X*X*X*X*X*X*X*X*X*X*X*X*X*X*X*X*X",
"*X*X*X*X*X*X*X*X*X*X*X*X*X*X*X*X*X*X*X*X*X*X*X*X*X*X*X*X*X*X*X*X*X*X*X*X*X*X*X*X*X*X*X*X*X*X*X*X*X*X*X*X*X*X*X*X*X*X*X*X*X*X*X*X"
};
