/* XPM */
static char *result[] = {
/* columns rows colors chars-per-pixel */
"64 64 206 2 ",
"   c #360020",
".  c #291726",
"X  c #2C192A",
"o  c #351E27",
"O  c #3F242F",
"+  c #3F253D",
"@  c #3C243E",
"#  c #491326",
"$  c #422420",
"%  c #412423",
"&  c #442621",
"*  c #452721",
"=  c #472721",
"-  c #4A2924",
";  c #4D2B25",
":  c #4E2B25",
">  c #4D2B26",
",  c #4E2C26",
"<  c #4A2929",
"1  c #502C25",
"2  c #5E2B2B",
"3  c #57302A",
"4  c #5A302F",
"5  c #5C302E",
"6  c #5D332F",
"7  c #5F332F",
"8  c #5F352E",
"9  c #4B2A3A",
"0  c #4A2B3B",
"q  c #4B2B3B",
"w  c #4E2D39",
"e  c #4F2D3F",
"r  c #512E3F",
"t  c #5B3232",
"y  c #5C3232",
"u  c #5F3430",
"i  c #5C3334",
"p  c #5D3334",
"a  c #5D353E",
"s  c #62372D",
"d  c #60342F",
"f  c #61342F",
"g  c #60352F",
"h  c #6B3C2F",
"j  c #613430",
"k  c #623630",
"l  c #633733",
"z  c #643731",
"x  c #613735",
"c  c #6B3531",
"v  c #643831",
"b  c #653831",
"n  c #653931",
"m  c #663931",
"M  c #683B31",
"N  c #683B32",
"B  c #693B32",
"V  c #6A3B33",
"C  c #6A3C32",
"Z  c #6C3C32",
"A  c #6C3D32",
"S  c #6C3D33",
"D  c #6D3E32",
"F  c #6D3E33",
"G  c #6E3F33",
"H  c #6F3F34",
"J  c #6E3D37",
"K  c #63383B",
"L  c #6E3D39",
"P  c #704033",
"I  c #734232",
"U  c #744233",
"Y  c #714034",
"T  c #724234",
"R  c #734234",
"E  c #724037",
"W  c #764236",
"Q  c #754434",
"!  c #754435",
"~  c #764435",
"^  c #774535",
"/  c #7E4130",
"(  c #7C4333",
")  c #784635",
"_  c #794635",
"`  c #794735",
"'  c #7A4735",
"]  c #784536",
"[  c #794537",
"{  c #784636",
"}  c #7A4736",
"|  c #7E4A37",
" . c #774339",
".. c #784339",
"X. c #784438",
"o. c #794538",
"O. c #7A4638",
"+. c #4A2B43",
"@. c #502E41",
"#. c #512E42",
"$. c #854632",
"%. c #844934",
"&. c #854A34",
"*. c #864B36",
"=. c #864C36",
"-. c #874C36",
";. c #814A3B",
":. c #834D38",
">. c #864F38",
",. c #875038",
"<. c #865039",
"1. c #875039",
"2. c #875139",
"3. c #885139",
"4. c #8A5139",
"5. c #895239",
"6. c #89523A",
"7. c #8A523A",
"8. c #8A533A",
"9. c #8B533A",
"0. c #8D5339",
"q. c #8B543A",
"w. c #8E5439",
"e. c #8C543A",
"r. c #8D543A",
"t. c #8C543B",
"y. c #8D553B",
"u. c #8E543A",
"i. c #8E553B",
"p. c #8F553B",
"a. c #8E563B",
"s. c #8F563B",
"d. c #8F573B",
"f. c #92533B",
"g. c #90553B",
"h. c #90563A",
"j. c #90563B",
"k. c #90573B",
"l. c #91573B",
"z. c #91573C",
"x. c #93573D",
"c. c #92573E",
"v. c #91583C",
"b. c #90583D",
"n. c #92583C",
"m. c #93583C",
"M. c #93593C",
"N. c #94593C",
"B. c #94593D",
"V. c #945A3C",
"C. c #955A3D",
"Z. c #965B3D",
"A. c #94583E",
"S. c #94593E",
"D. c #995C3F",
"F. c #985E3F",
"G. c #8C5F42",
"H. c #9A5C40",
"J. c #9B5D40",
"K. c #9C5E40",
"L. c #9E5F41",
"P. c #8D6043",
"I. c #9A6547",
"U. c #A06645",
"Y. c #A16845",
"T. c #A56B47",
"R. c #A56C47",
"E. c #A46D48",
"W. c #A56D48",
"Q. c #A56E48",
"!. c #A66E49",
"~. c #A66F49",
"^. c #A76F49",
"/. c #A56D4C",
"(. c #A87049",
"). c #B0734C",
"_. c #B07950",
"`. c #B17A50",
"'. c #B77851",
"]. c #CE9660",
"[. c #CE9861",
"{. c #D29962",
"}. c #D39A62",
"|. c #D39B62",
" X c #D39B63",
".X c #D49A63",
"XX c #D49B63",
"oX c #D59B63",
"OX c #D69C64",
"+X c #DB9F66",
"@X c #DC9E66",
"#X c #DAA267",
"$X c #DBA267",
"%X c #DCA066",
"&X c #DEA167",
"*X c #DFA268",
"=X c #DFA569",
"-X c #DFA669",
";X c #DFA66A",
":X c #E1A067",
">X c #E1A369",
",X c #E1A76A",
"<X c #E6AB6D",
"1X c #E8AD6D",
"2X c #EDAC6E",
"3X c None",
/* pixels */
"3X3X3X3X3X3X3X3X3X3X3X3X3X3X3X3X3X3X3X3X3X3X3X3X3X3X3X3X3X3X3X3X3X3X3X3X3X3X3X3X3X3X3X3X3X3X3X3X3X3X3X3X3X3X3X3X3X3X3X3X3X3X3X3X",
"3X3X3X3X3X3X3X3X3X3X3X3X3X3X3X3X3X3X3X3X3X3X3X3X3X3X3X3X3X3X3X3X3X3X3X3X3X3X3X3X3X3X3X3X3X3X3X3X3X3X3X3X3X3X3X3X3X3X3X3X3X3X3X3X",
"3X3X3X3X3X3X3X3X3X3X3X3X3X3X3X3X3X3X3X3X3X3X3X3X3X3X3X3X3X3X3X3X3X3X3X3X3X3X3X3X3X3X3X3X3X3X3X3X3X3X3X3X3X3X3X3X3X3X3X3X3X3X3X3X",
"3X3X3X3X3X3X3X3X3X3X3X3X3X3X3X3X3X3X3X3X3X3X3X3X3X3X3X3X3X3X3X3X3X3X3X3X3X3X3X3X3X3X3X3X3X3X3X3X3X3X3X3X3X3X3X3X3X3X3X3X3X3X3X3X",
"3X3X3X3X3X3X3X3X3X3X3X3X3X3X3X3X3X3X3X3X3X3X3X3X3X3X3X3X3X3X3X3X3X3X3X3X3X3X3X3X3X3X3X3X3X3X3X3X3X3X3X3X3X3X3X3X3X3X3X3X3X3X3X3X",
"3X3X3X3X3X3X3X3X3X3X3X3X3X3X3X3X3X3X3X3X3X3X3X3X3X3X3X3X3X3X3X3X3X3X3X3X3X3X3X3X3X3X3X3X3X3X3X3X3X3X3X3X3X3X3X3X3X3X3X3X3X3X3X3X",
"3X3X3X3X3X3X3X3X3X3X3X3X3X3X3X3X3X3X3X3X3X3X3X3X3X3X3X3X3X3X3X3X3X3X3X3X3X3X3X3X3X3X3X3X3X3X3X3X3X3X3X3X3X3X3X3X3X3X3X3X3X3X3X3X",
"3X3X3X3X3X3X3X3X3X3X3X3X3X3X3X3X3X3X3X3X3X3X3X3X3X3X3X3X3X3X3X3X3X3X3X3X3X3X3X3X3X3X3X3X3X3X3X3X3X3X3X3X3X3X3X3X3X3X3X3X3X3X3X3X",
"3X3X3X3X3X3X3X3X3X3X3X3X3X3X3X3X3X3X3X3X3X3X3X3X3X3X3X3X$.( 2   3X3X3X3X3X3X3X3X3X3X3X3X3X3X3X3X3X3X3X3X3X3X3X3X3X3X3X3X3X3X3X3X",
"3X3X3X3X3X3X3X3X3X3X3X3X3X3X3X3X3X3X3X3X3X3X3X3X3X3X3X3X(.'./.P.3X3X3X3X3X3X3X3X3X3X3X3X3X3X3X3X3X3X3X3X3X3X3X3X3X3X3X3X3X3X3X3X",
"3X3X3X3X3X3X3X3X3X3X;X-X=X;X;X;X;X;X;X;X;X;X;X;X;X=X,X$X|.OX X[.#X,X=X;X;X;X;X;X;X;X;X;X;X;X;X=X-X;X3X3X3X3X3X3X3X3X3X3X3X3X3X3X",
"3X3X3X3X3X3X3X3X3X3X].2X>X&X&X&X&X&X&X&X&X&X&X&X&X&X*X+X.X{.}.oX%X*X&X&X&X&X&X&X&X&X&X&X&X&X&X>X2X].3X3X3X3X3X3X3X3X3X3X3X3X3X3X",
"3X3X3X3X3X3X3X3X<XXX_.R.!.^.^.^.^.^.^.^.^.^.^.^.^.^.^.!.W.E.E.Q.!.^.^.^.^.^.^.^.^.^.^.^.^.^.^.!.T.`.oX1X3X3X3X3X3X3X3X3X3X3X3X3X",
"3X3X3X3X3X3X3X3X}.:XY./ &.-.=.=.-.-.=.=.-.-.=.=.=.=.=.=.=.=.-.-.-.-.=.=.-.-.=.=.=.-.-.-.=.=.=.%./ U.@X[.3X3X3X3X3X3X3X3X3X3X3X3X",
"3X3X3X3X3X3X3X3X~.).F.w.h.p.u.u.j.j.u.u.j.j.u.r.r.r.r.r.r.u.s.j.j.p.u.u.j.j.u.r.r.u.j.j.u.r.r.r.0.b.I.G.3X3X3X3X3X3X3X3X3X3X3X3X",
"3X3X3X3X3X3X3X3X*.f.4.2.<.5.i.i.5.5.i.i.5.5.i.k.s.s.s.s.j.y.5.1.1.5.i.i.5.3.y.k.k.i.5.3.y.j.j.k.M.>.c # 3X3X3X3X3X3X3X3X3X3X3X3X",
"3X3X3X3X3X3X3X3Xg.x.} A B Q 9.9.~ ~ 9.9.Q ~ 9.N.k.s.s.s.z.5.) D D ) q.9.~ Q 3.n.N.9.~ Q 3.n.n.n.M.3.W 5 3X3X3X3X3X3X3X3X3X3X3X3X",
"3X3X3X3X3X3X3X3XM.c.G 6 n ^ e.5.B B 5.6.C n | 9.i.j.s.j.n.1.D 4 4 G 7.5.B N 1.l.e.| n B 1.k.5.5.k.7.[ f 3X3X3X3X3X3X3X3X3X3X3X3X",
"3X3X3X3X3X3X3X3XM.c.S n | e.l.1.N B 5.7.D 6 n ~ 5.v.s.j.n.1.D 4 4 G 7.5.B B 5.e.^ n 6 D 5.9.R R 9.t.O.f 3X3X3X3X3X3X3X3X3X3X3X3X",
"3X3X3X3X3X3X3X3Xv.S.^ ~ 9.N.n.3.Q ~ 9.q._ A B Q 3.v.s.s.z.5.) D D ) q.9.~ ~ 9.9.Q B A _ e.8.T R 9.t.O.f 3X3X3X3X3X3X3X3X3X3X3X3X",
"3X3X3X3X3X3X3X3Xk.D.9.5.i.k.k.y.3.5.i.i.5.1.<.5.y.j.s.s.j.y.5.1.1.5.i.i.5.5.i.i.5.<.<.5.i.i.3.5.k.7.[ f 3X3X3X3X3X3X3X3X3X3X3X3X",
"3X3X3X3X3X3X3X3Xp.K.B.n.k.s.s.j.n.n.k.k.v.n.n.z.j.s.s.s.s.j.n.m.n.z.k.k.n.n.s.s.z.n.n.v.k.k.n.n.m.6.[ f 3X3X3X3X3X3X3X3X3X3X3X3X",
"3X3X3X3X3X3X3X3Xp.J.n.k.v.v.s.j.n.m.n.v.k.s.j.s.s.s.s.s.s.j.n.n.k.k.v.n.n.n.j.s.s.j.s.k.v.n.n.n.n.6.[ f 3X3X3X3X3X3X3X3X3X3X3X3X",
"3X3X3X3X3X3X3X3Xp.J.m.i.5.5.i.i.5.<.<.5.y.j.j.j.j.s.s.s.j.y.3.5.i.i.5.1.1.5.y.j.j.j.j.y.5.1.<.5.k.7.[ f 3X3X3X3X3X3X3X3X3X3X3X3X",
"3X3X3X3X3X3X3X3Xp.K.Z.9.~ Q 9.9.Q B A ) 5.n.n.n.n.z.j.s.z.5.Q ~ 9.q.) D D ) 5.n.n.n.n.5.) A B ! 9.t.O.f 3X3X3X3X3X3X3X3X3X3X3X3X",
"3X3X3X3X3X3X3X3Xk.H.i.| n C 5.e.^ n 6 A 2.k.5.<.<.5.y.k.n.<.M B 5.7.G 4 4 F 2.k.5.5.k.2.A 6 n ^ e.t.O.f 3X3X3X3X3X3X3X3X3X3X3X3X",
"3X3X3X3X3X3X3X3Xm.S.{ n 6 A 2.l.e.| n C 5.e.~ M M Q 3.n.m.<.M B 5.7.G 4 4 F 5.9.R R 9.5.C n | e.l.7.[ f 3X3X3X3X3X3X3X3X3X3X3X3X",
"3X3X3X3X3X3X3X3Xm.S.^ B A ) 5.n.N.9.~ Q 9.9.~ M M Q 3.n.n.5.Q ~ 9.q.) D D ) e.8.T T 8.9.Q ~ 9.N.M.6.[ f 3X3X3X3X3X3X3X3X3X3X3X3X",
"3X3X3X3X3X3X3X3Xk.D.9.<.<.5.y.k.k.i.5.5.i.i.5.<.<.5.y.j.j.y.3.5.i.i.5.1.1.5.i.i.3.3.i.i.5.5.i.l.n.6.[ f 3X3X3X3X3X3X3X3X3X3X3X3X",
"3X3X3X3X3X3X3X3Xd.K.B.n.n.z.j.s.s.j.v.v.s.s.z.n.n.z.j.s.s.j.v.v.s.s.z.n.n.z.s.s.v.v.s.s.v.v.j.s.n.7.[ d 3X3X3X3X3X3X3X3X3X3X3X3X",
"3X3X3X3X3X3X3X3Xv.L.C.n.k.s.s.s.s.s.s.s.s.s.s.j.j.s.s.s.s.s.s.s.s.s.s.j.j.s.s.s.s.s.s.s.s.s.s.k.V.t.O.d 3X3X3X3X3X3X3X3X3X3X3X3X",
"3X3X3X3X3X3X3X3X,.A.6.5.i.k.j.j.j.j.j.j.j.j.j.j.j.j.j.j.j.j.j.j.j.j.j.j.j.j.j.j.j.j.j.j.j.j.k.a.q.:.X.k 3X3X3X3X3X3X3X3X3X3X3X3X",
"3X3X3X3X3X3X3X3XP ;.Y ` 9.V.n.n.n.n.n.n.n.n.n.n.n.n.n.n.n.n.n.n.n.n.n.n.n.n.n.n.n.n.n.n.n.n.V.q.' H  .b 3X3X3X3X3X3X3X3X3X3X3X3X",
"3X3X3X3X3X3X3X3Xd u 6 H :.t.7.6.6.6.6.6.6.6.6.6.6.6.6.6.3.3.3.3.6.6.6.6.6.6.6.6.6.6.6.6.6.7.t.:.H 7 z m 3X3X3X3X3X3X3X3X3X3X3X3X",
"3X3X3X3X3X3X3X3X3X3Xz ..X.O.[ [ [ [ [ [ [ [ [ [ [ o.O.] U I I U ] O.o.[ [ [ [ [ [ [ [ [ [ [ O.X. .v 3X3X3X3X3X3X3X3X3X3X3X3X3X3X",
"3X3X3X3X3X3X3X3X3X3Xm v k d j j j j j j j j j j j g g u t i p y u g g j j j j j j j j j j j d k v m 3X3X3X3X3X3X3X3X3X3X3X3X3X3X",
"3X3X3X3X3X3X3X3X3X3X3X3X3X3X3X3X3X3X3X3X3X3X3X3X3X3X3X3X9 e r w 3X3X3X3X3X3X3X3X3X3X3X3X3X3X3X3X3X3X3X3X3X3X3X3X3X3X3X3X3X3X3X3X",
"3X3X3X3X3X3X3X3X3X3X3X3X3X3X3X3X3X3X3X3X3X3X3X3X3X3X3X3X0 #.+.+ 3X3X3X3X3X3X3X3X3X3X3X3X3X3X3X3X3X3X3X3X3X3X3X3X3X3X3X3X3X3X3X3X",
"3X3X3X3X3X3X3X3X3X3X3X3X3X3X3X3X3X3X3X3X3X3X3X3X3X3X3X3Xl K @.@ 3X3X3X3X3X3X3X3X3X3X3X3X3X3X3X3X3X3X3X3X3X3X3X3X3X3X3X3X3X3X3X3X",
"3X3X3X3X3X3X3X3X3X3X3X3X3X3X3X3X3X3X3X3X3X3X3X3X3X3X3X3Xh J a q 3X3X3X3X3X3X3X3X3X3X3X3X3X3X3X3X3X3X3X3X3X3X3X3X3X3X3X3X3X3X3X3X",
"3X3X3X3X3X3X3X3X3X3X3X3X3X3X3X3X3X3X3X3X3X3X3X3X3X3X3X3XB E L x 3X3X3X3X3X3X3X3X3X3X3X3X3X3X3X3X3X3X3X3X3X3X3X3X3X3X3X3X3X3X3X3X",
"3X3X3X3X3X3X3X3X3X3X3X3X3X3X3X3X3X3X3X3X3X3X3X3X3X3X3X3X8 V Z s 3X3X3X3X3X3X3X3X3X3X3X3X3X3X3X3X3X3X3X3X3X3X3X3X3X3X3X3X3X3X3X3X",
"3X3X3X3X3X3X3X3X3X3X3X3X3X3X3X3X3X3X3X3X3X3X3X3X3X3X3X3X; 3 3 : 3X3X3X3X3X3X3X3X3X3X3X3X3X3X3X3X3X3X3X3X3X3X3X3X3X3X3X3X3X3X3X3X",
"3X3X3X3X3X3X3X3X3X3X3X3X3X3X3X3X3X3X3X3X3X3X3X3X3X3X3X3X$ - - $ 3X3X3X3X3X3X3X3X3X3X3X3X3X3X3X3X3X3X3X3X3X3X3X3X3X3X3X3X3X3X3X3X",
"3X3X3X3X3X3X3X3X3X3X3X3X3X3X3X3X3X3X3X3X3X3X3X3X3X3X3X3X& > > & 3X3X3X3X3X3X3X3X3X3X3X3X3X3X3X3X3X3X3X3X3X3X3X3X3X3X3X3X3X3X3X3X",
"3X3X3X3X3X3X3X3X3X3X3X3X3X3X3X3X3X3X3X3X3X3X3X3X3X3X3X3X* , , * 3X3X3X3X3X3X3X3X3X3X3X3X3X3X3X3X3X3X3X3X3X3X3X3X3X3X3X3X3X3X3X3X",
"3X3X3X3X3X3X3X3X3X3X3X3X3X3X3X3X3X3X3X3X3X3X3X3X3X3X3X3X= 1 1 = 3X3X3X3X3X3X3X3X3X3X3X3X3X3X3X3X3X3X3X3X3X3X3X3X3X3X3X3X3X3X3X3X",
"3X3X3X3X3X3X3X3X3X3X3X3X3X3X3X3X3X3X3X3X3X3X3X3X3X3X3X3X% < < % 3X3X3X3X3X3X3X3X3X3X3X3X3X3X3X3X3X3X3X3X3X3X3X3X3X3X3X3X3X3X3X3X",
"3X3X3X3X3X3X3X3X3X3X3X3X3X3X3X3X3X3X3X3X3X3X3X3X3X3X3X3Xo O O o 3X3X3X3X3X3X3X3X3X3X3X3X3X3X3X3X3X3X3X3X3X3X3X3X3X3X3X3X3X3X3X3X",
"3X3X3X3X3X3X3X3X3X3X3X3X3X3X3X3X3X3X3X3X3X3X3X3X3X3X3X3X. X X . 3X3X3X3X3X3X3X3X3X3X3X3X3X3X3X3X3X3X3X3X3X3X3X3X3X3X3X3X3X3X3X3X",
"3X3X3X3X3X3X3X3X3X3X3X3X3X3X3X3X3X3X3X3X3X3X3X3X3X3X3X3X3X3X3X3X3X3X3X3X3X3X3X3X3X3X3X3X3X3X3X3X3X3X3X3X3X3X3X3X3X3X3X3X3X3X3X3X",
"3X3X3X3X3X3X3X3X3X3X3X3X3X3X3X3X3X3X3X3X3X3X3X3X3X3X3X3X3X3X3X3X3X3X3X3X3X3X3X3X3X3X3X3X3X3X3X3X3X3X3X3X3X3X3X3X3X3X3X3X3X3X3X3X",
"3X3X3X3X3X3X3X3X3X3X3X3X3X3X3X3X3X3X3X3X3X3X3X3X3X3X3X3X3X3X3X3X3X3X3X3X3X3X3X3X3X3X3X3X3X3X3X3X3X3X3X3X3X3X3X3X3X3X3X3X3X3X3X3X",
"3X3X3X3X3X3X3X3X3X3X3X3X3X3X3X3X3X3X3X3X3X3X3X3X3X3X3X3X3X3X3X3X3X3X3X3X3X3X3X3X3X3X3X3X3X3X3X3X3X3X3X3X3X3X3X3X3X3X3X3X3X3X3X3X",
"3X3X3X3X3X3X3X3X3X3X3X3X3X3X3X3X3X3X3X3X3X3X3X3X3X3X3X3X3X3X3X3X3X3X3X3X3X3X3X3X3X3X3X3X3X3X3X3X3X3X3X3X3X3X3X3X3X3X3X3X3X3X3X3X",
"3X3X3X3X3X3X3X3X3X3X3X3X3X3X3X3X3X3X3X3X3X3X3X3X3X3X3X3X3X3X3X3X3X3X3X3X3X3X3X3X3X3X3X3X3X3X3X3X3X3X3X3X3X3X3X3X3X3X3X3X3X3X3X3X",
"3X3X3X3X3X3X3X3X3X3X3X3X3X3X3X3X3X3X3X3X3X3X3X3X3X3X3X3X3X3X3X3X3X3X3X3X3X3X3X3X3X3X3X3X3X3X3X3X3X3X3X3X3X3X3X3X3X3X3X3X3X3X3X3X",
"3X3X3X3X3X3X3X3X3X3X3X3X3X3X3X3X3X3X3X3X3X3X3X3X3X3X3X3X3X3X3X3X3X3X3X3X3X3X3X3X3X3X3X3X3X3X3X3X3X3X3X3X3X3X3X3X3X3X3X3X3X3X3X3X",
"3X3X3X3X3X3X3X3X3X3X3X3X3X3X3X3X3X3X3X3X3X3X3X3X3X3X3X3X3X3X3X3X3X3X3X3X3X3X3X3X3X3X3X3X3X3X3X3X3X3X3X3X3X3X3X3X3X3X3X3X3X3X3X3X",
"3X3X3X3X3X3X3X3X3X3X3X3X3X3X3X3X3X3X3X3X3X3X3X3X3X3X3X3X3X3X3X3X3X3X3X3X3X3X3X3X3X3X3X3X3X3X3X3X3X3X3X3X3X3X3X3X3X3X3X3X3X3X3X3X",
"3X3X3X3X3X3X3X3X3X3X3X3X3X3X3X3X3X3X3X3X3X3X3X3X3X3X3X3X3X3X3X3X3X3X3X3X3X3X3X3X3X3X3X3X3X3X3X3X3X3X3X3X3X3X3X3X3X3X3X3X3X3X3X3X",
"3X3X3X3X3X3X3X3X3X3X3X3X3X3X3X3X3X3X3X3X3X3X3X3X3X3X3X3X3X3X3X3X3X3X3X3X3X3X3X3X3X3X3X3X3X3X3X3X3X3X3X3X3X3X3X3X3X3X3X3X3X3X3X3X",
"3X3X3X3X3X3X3X3X3X3X3X3X3X3X3X3X3X3X3X3X3X3X3X3X3X3X3X3X3X3X3X3X3X3X3X3X3X3X3X3X3X3X3X3X3X3X3X3X3X3X3X3X3X3X3X3X3X3X3X3X3X3X3X3X",
"3X3X3X3X3X3X3X3X3X3X3X3X3X3X3X3X3X3X3X3X3X3X3X3X3X3X3X3X3X3X3X3X3X3X3X3X3X3X3X3X3X3X3X3X3X3X3X3X3X3X3X3X3X3X3X3X3X3X3X3X3X3X3X3X"
};
