/* XPM */
static char *result[] = {
/* columns rows colors chars-per-pixel */
"64 64 103 2 ",
"   c #987856",
".  c #997856",
"X  c #9A7957",
"o  c #9B7957",
"O  c #9B7A57",
"+  c #9B7A58",
"@  c #9C7A58",
"#  c #9C7B58",
"$  c #9D7B58",
"%  c #9D7B59",
"&  c #9D7C59",
"*  c #9E7C59",
"=  c #9F7C59",
"-  c #9F7D59",
";  c #9F7D5A",
":  c #A07D5A",
">  c #A07E5A",
",  c #A17E5A",
"<  c #A17E5B",
"1  c #A17F5B",
"2  c #A27F5B",
"3  c #A2805B",
"4  c #A3805B",
"5  c #A3805C",
"6  c #A4805C",
"7  c #A4815C",
"8  c #A4815D",
"9  c #A5815D",
"0  c #A5825D",
"q  c #A6825D",
"w  c #A6825E",
"e  c #A6835E",
"r  c #A7835E",
"t  c #A8835E",
"y  c #A8845E",
"u  c #A8845F",
"i  c #A9845F",
"p  c #A9855F",
"a  c #AA855F",
"s  c #AA8560",
"d  c #AA8660",
"f  c #AB8660",
"g  c #AB8760",
"h  c #AC8761",
"j  c #AD8761",
"k  c #AD8861",
"l  c #AD8862",
"z  c #AE8862",
"x  c #AE8962",
"c  c #AF8962",
"v  c #AF8963",
"b  c #AF8A63",
"n  c #B08A63",
"m  c #B18A63",
"M  c #B18B63",
"N  c #B18B64",
"B  c #B28B64",
"V  c #B28C64",
"C  c #B38C64",
"Z  c #B38C65",
"A  c #B38D65",
"S  c #B48D65",
"D  c #B48E65",
"F  c #B58E65",
"G  c #B58E66",
"H  c #B68E66",
"J  c #B68F66",
"K  c #B68F67",
"L  c #B78F67",
"P  c #B79067",
"I  c #B89067",
"U  c #B89068",
"Y  c #B89168",
"T  c #B99168",
"R  c #BA9268",
"E  c #BA9269",
"W  c #BB9269",
"Q  c #BB9369",
"!  c #BC9369",
"~  c #BC936A",
"^  c #BC946A",
"/  c #BD946A",
"(  c #BD956A",
")  c #BE956B",
"_  c #BF956B",
"`  c #BF966B",
"'  c #BF966C",
"]  c #C0966C",
"[  c #C0976C",
"{  c #C1976C",
"}  c #C1976D",
"|  c #C1986D",
" . c #C2986D",
".. c #C3986D",
"X. c #C3996D",
"o. c #C3996E",
"O. c #C4996E",
"+. c #C49A6E",
"@. c #C59A6E",
"#. c #C59A6F",
"$. c #C59B6F",
"%. c #C69B6F",
"&. c #C79C70",
/* pixels */
"#.] L f > > f P | | P f ; * i S ) o. . .@.E 5 6 ! %.$.W 0 * i S ) o. . . . . . . .X.%.~ 0 * s H [ ' Z k m h > > g L [ +. . . . .",
"] W N r ; ; r B ^ ^ B u 2 9 c T ' o. . .#.W 6 2 L  .+.Q 9 ; z T ' o. . . . . . ... .| P 7 - s H ] [ I V V h < ; r N E [  ... . .",
"G n r ; $ # * q Z Z q 2 r n E [ |  . .X.%.~ 0 ; z T  .! 7 5 U X. . . . .o.o.o.O.+.[ T z < : d G ` X.[ Q S f 1 $ ; w c T [ +.O.o.",
"n f : @ > 2 : 3 p y & < v W { +. . . . . .I 7 * i G } ^ 7 5 T o. . ...| ` ) ) ` ] Q A a : > f H _ +.#.] J d 2 @ o > p S ! ] ` _ ",
"C j : & r h f u 5 * o q T o. . . . .+.{ E c 1 : f P X./ 0 : c W { @.@.[ T S G G H G A h , > f L ] #.$.] H d 2 @ @ 2 j A G H G G ",
"k s 5 q N P P N 0 & O q T o. . .X. .{ E n q ; : r V ( T 9 $ 0 n W [ [ E v i s d d f j i : ; r N Q [ ] ~ G f 2 @ @ < p k f f f f ",
"< 7 u N Q [ [ W N r = 2 b W { @.#.[ T c q ; * * ; r A B 2 X $ 0 N P P N w : > > > > , : $ # * q N P J G S j < X + * < 2 2 2 2 2 ",
"X < h P [ $.$.[ P h < - q n W [ [ Q S p : o $ % + : u a 7 > ; 2 u f h r ; @ ; < > > > > 1 1 : 5 i f d f h a 7 < 2 > % @ # # # # ",
"@ 2 h P [ $.$.[ P h 2 $ - e N L J G S h , X @ $ % * - 5 u h f u 2 ; > ; $ , p k f s d d d f j s 7 > > ; * 1 u h h t ; O $ * * * ",
"# , t B Q [ [ Q N r , @ O ; r h f f j s 7 < 2 < = * * 0 N P P N 9 * : ; # 2 k S G H G G H G S h , O - 2 5 p V P P B r ; * * * * ",
"@ % ; r B P P N q * $ @ @ $ ; < 1 1 : 5 u h k p > ; r N Q [ [ E c i f r * : h J ~ ' _ ` ] Q A p > ; r m T ) ' { | ~ B t < # # # ",
"2 , # ; r h f u 2 : < 2 2 2 < ; $ # % 0 N K S h > > h P [ $.#.[ Y S L N q 2 y V ` #.O.O.+.[ T x < > h L )  .[ [ { / K h 2 $ , 2 ",
"l p , $ ; > ; 2 u f f f f f k i : - q n ~ / S p * ; f P [ #.o.| ` ) ] W N y < i ~ @.X. . . .X.T 7 ; j S G J J J J G S k 1 ; y h ",
"Z l 2 $ : > * 9 N L H G H G A h > 2 b W  . .T c 9 2 u N W {  .X.o.O.#.] L f % 6 W #.X. . . .X.T 9 * i k f d d d d f j i ; 2 M P ",
"B h < : i h p c E [ ` ` ] Q A p * 9 T o. . . .! N u 2 0 n E { +.X. .O.` H s * 0 ~ %.+.O.+.[ T x 2 $ < 2 2 1 > > > > , ; O q T  .",
"B h > , j A S T [ +.O.O.+.[ T l ; 7 T o. . . ./ K h : % 0 n E {  .X.O.` H d * 7 I { ` ` ] Q S s 1 @ # # @ % : < > > > ; O q T  .",
"Z k < > f G ! [  ... . ... . .L 2 - c W  . .T S S k 2 # - w n E { #.#.] L f = > n P H G H G S h < o $ & # < p k f d f r % < n I ",
"j i ; > d H ] +. . . . . .X.$./ p > e n ^ ~ v p h p 1 # O ; q n W [ [ W N u 5 5 u f d d d f j s 7 : * $ # 2 k S G J L N 0 2 u f ",
"- * # 2 f G ` O. . . . . . .O.) V y 2 q Z C 0 * > > = * % * ; r N P P N 8 < p i < * ; , 1 1 : 5 a i : O @ 2 f G ~ ] [ W n r 5 < ",
"q 5 % , f H ` O. . . . . . .o.` L f : * u p 5 ; > : * & * $ + ; y h h u < 9 C S s 5 2 ; $ # % q C Z r - # < f J ] #.#.{ W b 2 X ",
"/ S > # f P ] #.O.o.o.o.o.O.#.] J f 1 # * 5 u f h r ; O @ $ $ = < 2 < 6 u N ^ { _ T M r ; - q n ~ ^ m 0 % : f L ` O.X. .o.T q X ",
"&.` l 9 p M W ] ` _ _ _ _ ` ] ~ G f 1 # % 0 N P P N w > 2 < = $ $ @ X < h K /  . .) L h : < c W  . .W n 0 2 y V ) +.X. .o.T q o ",
"+.X.] J e 7 N L H G G G G G H G S j : % 0 n W [ [ E v p f y ; + $ & @ 2 k S G J K G S h * 4 P  .o.O. .! N y < p / %.#.{ E n 5 @ ",
") ] o.E 7 @ r h f d d d d d d f j a 2 9 n E { #.#.[ Y S L N r ; * % # < p k f s s f h a 1 a / #.[ _ { / K f * 5 I | { W n q > # ",
"G J I N 5 # > 2 > > > > > > 1 1 : 2 r n E } o.O.X.| ` ) ] Q N y < # # % : < > > > > ; 5 p S [  .T S H G S k > 1 n I P N 0 % $ @ ",
"d f f y < # # % : < > > , : $ # * 0 n E } o.` ) { X.o.+.#.] L h 2 $ < 2 , > > > > : ; 5 p C / ~ v i s f j p : ; y h f u 2 : < 2 ",
"> > > : * & # < p j f f j i : ; r B ~  .o.` G G ] #.+.O.+._ H f , : p k f s d d d d f u < 0 Z Z 0 * : > , : $ % , 2 : 2 u f f f ",
"> > > : * % # 2 k S G G S j , > h J / } X.` G S Q ` ) ' X.` J d ; > h A G H G G G H L N 8 < p p 5 ; > > > < 2 < $ @ % 0 N L H G ",
"d f f r ; O @ 2 f G / / G f > > h B N K `  .] Q G B V I  .} P f * $ i S ! ] ` _ _ ` ] W N u 5 5 s h f f f j c s - % 0 n W [ ` _ ",
"G H L N r ; $ 1 d J | | J s > > h B N K _ O.@.[ L n z V / ~ M p r p n Y [ +.O.o.o.O.#.] L f ; ; h S G G C n v f 5 0 n E { +.O.o.",
"_ ` ] Q N r ; > d J | | J s > > f G ^ }  . ... .] E V n H N 5 0 J ` ) ` | .. . . . .O.` H f : > f G ) ) G h 7 5 u N W {  ... . .",
"o.O.#.[ P h > > f G / / G f > > f G / |  . . ...#.] G k h t : t E +.O.o. . . . . . .o.) G d > > f G ) ) H d - ; f L [ +. . . . .",
" .X.#.[ P h > , j S G G S h ; ; j A Z I [ +. . .#.] H f 5 5 s n Z R { +. . . . . . .o.) G d > , j S G G S j > : d H ` o. . . . .",
".. .{ W N r ; : p k f f h s 5 5 p k k V W [  . .[ Q G d ; = s z p c E {  ... . . . .O.` H f > ; i h d d h i ; > f H ` O. . . . .",
"+.{ E n 0 * # % < 2 , : ; 5 p p 1 5 k Z V I | | I V V h 1 $ : , * 9 n E { +.O.o.o.O.#.] L f , O * - * * - * O , f L ] #.O.o.o.o.",
"[ W n w 2 : 2 < % $ : > * 0 Z C 8 < i k k C ^ ~ V z N j 2 # ; > ; 2 e n W [ ` _ _ ` ] W N u 6 2 9 q 0 0 q 8 2 6 u N Q ] ` _ _ _ ",
"L N 7 > y h k p : : i h p v ~ ~ n w < 5 k Z S A n n C k > * r h f y > 7 N L H G G H L N q 2 u m T / ^ ^ / T M u 2 q N L H G G G ",
"f u < 9 B L S k > > h Z S T  . .E n 6 < i l x v n n z p 2 0 N P P N 8 < u f f f f f h r * : h L )  .| |  .) L h : * r f f d d d ",
"< 6 u B / ` L h ; * p S Q {  . .{ E n w < 5 l C Z z 5 < e n W [ [ W N u 6 < 2 2 2 2 2 > $ 2 k S G K J J K G S k 2 # ; > > > > > ",
"X < h L ` / B u 2 9 c T { +. . .+.{ E n 7 1 a l k p < 6 n E { #.#.] L f > X @ # # # @ @ @ < p k f d d d d f k p , $ ; > > > > , ",
"@ 2 k S L B q 2 u N E [  . . . . . . .~ N u 7 , : 2 e n E {  .X.O.) S p : o $ * * % # @ @ % : < > > > > 1 2 < ; @ ; r f d f h h ",
"# < p k h r % ; f P [ @... . . . . . ./ K h , O % 0 n E { +. . .o.` Y v w : = & % * < 2 2 1 > > > > , : $ $ ; < : w N L J G V N ",
"@ % : < , - O > h P [ @. . .o.O.+.{ T S S k < - r N W {  . . . . .| [ E N y < # O ; y h f f d d s f j i : : i h p c E [ ] ~ F m ",
"2 2 > : > > > 6 u M W {  . .' ) ] E c p h i ; , h P [ @... . . . . .+.] L f 1 $ ; r B P H G G G H G A h > > k S S T { #.$._ B d ",
"h h f s d f f u < 7 n E  . .T D L N 9 * > ; + , h P [ @... . . . . .O.) S i = * u Z / { ` ) ) ` ] Q S p * ; h K / |  .X.@.~ a ; ",
"M V S H G H L M 7 > q n ~ ~ v i f u 2 ; : > > 6 u M W {  . . . . . .o.` Y c 9 5 p C ~  .o.O.o.O.+.[ T v 0 4 y N ~  . .o.#.W 0 . ",
"k V Q ] ` ` [ E n q > 9 C Z 0 * - 2 u f d f f u < 7 n E { +. . . . . .| [ E N u 4 q n E } +.X. . . . .~ Z p 1 7 n E { #.%.~ r X ",
"Z I [ +.O.O.+.{ E n 7 , i p 5 ; * 9 N L H H L M 7 > q n E {  ... . . .X.#.[ P f ; $ 0 n E {  ... . . .~ C i 2 < w n W { } I q O ",
"' [  . . . ... .{ E n r 2 5 s h p c E [ ` ` [ E n q > 7 n E { +.O.o.o.O.#.[ P h > X $ 9 n E { @.@.{ E n 9 1 i i , 7 N P I M 5 @ ",
"] [  . . . . .X.+.} W c > - h A S T [ +.O.O.+.{ E n 8 < e n W [ ` _ _ ` ] W N u 6 > ; 2 w n W [ [ W n q > 9 C C 9 > y f h u < $ ",
"F T { +. . .o.O.+.o.o.T 7 * p A Q [  ... . ... .{ W V p 2 0 N L H G G H L N 8 < u h f y > 7 N P P N 7 > q n ~ ~ n w 2 : 1 < - * ",
"i c R {  . .' ) ) '  .T 7 : z T { +. . . . . .X.#.] S y * * r f f d d f f u < 8 N P P M 7 , u h f y > 7 n E  . .E n 0 * $ # * * ",
"> q c T  . .T S G J P n > 7 Y X. . . . . . . .X.%./ f * # # ; > > > > > > 6 u N W [ [ E n r 5 > ; 2 w n E {  . .{ W N r > # * * ",
"o > p S / ! v i s f f r % 9 T o. . . . . . ... . .P 7 X > 2 , : > > , ; + > f L ] #.#.{ E c 2 X $ 9 n E { +. . .+.] L h 2 # * * ",
"@ 2 f C J B 0 * : > > - O 2 v W { +.O.o.o.O.+.{ E c 2 - p k f s s f j i ; : p S ) O.X. . .I 7 $ 0 n E {  . . . .o.` H f 2 # * * ",
"+ 2 k m j y 2 ; : > > > < 6 r n W [ ` _ _ ` [ W n q - 1 k S G J J G S k > < x T ] o. .X.%.~ 9 : c W { +. . . . .o.) G f 2 # & * ",
"  > x b 6 < y f f d s f j s 2 0 N L H G G H L N e - $ 2 h K / } } / K h ; 7 Y o.o.o. .X.%.~ 7 4 Y o. . . . . . .o.) G f 2 @ # # ",
"q u h s < 7 M L H G H G S h ; & r h f d d f h y ; O @ , r B ~  . .~ B r % 9 T  .` `  . . .P 4 5 T o. . . . . . .O.` H f < $ > 2 ",
"/ J r 1 w n W [ ` ` ] Q S p ; @ > 2 , > > , 2 , % @ @ $ * q N I I N q % X 2 m P G T  . .E c < < v W { +.O.o.o.O.#.] L f : * r h ",
"&.^ 7 * c W { +.O.O.+.[ T b r ; $ # ; , < : $ % > 2 2 < : 2 u h f u 2 ; > 6 u d u c ~ ^ m q ; ; q n W [ ` _ _ ` ] W N y 2 0 N L ",
"#.W 5 2 Y o. . . . . . . .~ Z u * * r h k p : ; y h f f f i 6 > ; 2 u f h u < $ @ 7 V A r ; * * * 0 N L H G G H L N 8 > w n W [ ",
"@.E 6 5 U X. . . . . . . .~ C p 5 q B K S j > 2 n P H H P n 2 X % q N P L V i 5 7 e f u : + % * ; 5 i f f f f f f u < 7 n E { +.",
"@.W 9 ; z T ' o. . .o.' T v 0 5 u N ~ / G f - 7 I { ` ` { I 7 & r N Q ] ` ) ! W ^ H y * * $ $ 1 s f 7 < 2 2 2 2 < 6 u M W {  ...",
"@.W 0 * i S ) o. . .o.) S i * ; f P | { J s * 0 ~ %.+.O.%.~ 0 * f L ] #.o.O.+.$.&./ q . $ * # 5 c c 1 X @ # # @ X < f L [ +. . ."
};
