/* XPM */
static char *result[] = {
/* columns rows colors chars-per-pixel */
"64 64 237 2 ",
"   c #581D00",
".  c #440300",
"X  c #6A1F00",
"o  c #6B2600",
"O  c #653900",
"+  c #6C3A00",
"@  c #6E3F0F",
"#  c #6B3600",
"$  c #7B3E01",
"%  c #763600",
"&  c #792D00",
"*  c #562B00",
"=  c #6B460B",
"-  c #75420D",
";  c #7C440D",
":  c #744A0F",
">  c #7D4C0D",
",  c #7C4202",
"<  c #784413",
"1  c #6C4D10",
"2  c #980100",
"3  c #9C1A00",
"4  c #A40200",
"5  c #AA0100",
"6  c #AB0C00",
"7  c #A60B00",
"8  c #B40200",
"9  c #BB0200",
"0  c #B40C00",
"q  c #BB0900",
"w  c #AF1000",
"e  c #A61D00",
"r  c #AE1E03",
"t  c #B31200",
"y  c #BD1402",
"u  c #BC1903",
"i  c #962C02",
"p  c #972201",
"a  c #843C0B",
"s  c #8A3E0B",
"d  c #873B00",
"f  c #983804",
"g  c #91310B",
"h  c #AB2403",
"j  c #A72A06",
"k  c #B92509",
"l  c #A63A03",
"z  c #B8310F",
"x  c #C50000",
"c  c #C80401",
"v  c #C40C02",
"b  c #C21302",
"n  c #C51B05",
"m  c #CA1A06",
"M  c #D41B06",
"N  c #E40000",
"B  c #EC0000",
"V  c #F30000",
"C  c #FF0000",
"Z  c #F70E00",
"A  c #F51A04",
"S  c #F81600",
"D  c #EB1201",
"F  c #C32105",
"G  c #C82508",
"H  c #D5220C",
"J  c #DA230C",
"K  c #D82A15",
"L  c #FF2902",
"P  c #FB2407",
"I  c #E52911",
"U  c #EE2B14",
"Y  c #E72813",
"T  c #FC2614",
"R  c #F32C14",
"E  c #FC2D15",
"W  c #F52710",
"Q  c #E83A16",
"!  c #FE3216",
"~  c #FF3219",
"^  c #FF391C",
"/  c #FA351A",
"(  c #F42B06",
")  c #FA3922",
"_  c #824303",
"`  c #8C4600",
"'  c #81450D",
"]  c #8B420B",
"[  c #84490D",
"{  c #8C4B0C",
"}  c #894802",
"|  c #95430B",
" . c #934D0B",
".. c #9A4900",
"X. c #93510E",
"o. c #9B520C",
"O. c #9A5100",
"+. c #8A4B15",
"@. c #965115",
"#. c #8F5014",
"$. c #A24400",
"%. c #A14B00",
"&. c #A4410C",
"*. c #BA4905",
"=. c #A35200",
"-. c #A2550A",
";. c #AD5706",
":. c #B35B04",
">. c #BB5D02",
",. c #B75702",
"<. c #A94515",
"1. c #BF6002",
"2. c #B96012",
"3. c #985728",
"4. c #935C35",
"5. c #8D552D",
"6. c #A65927",
"7. c #BC4F27",
"8. c #9A633E",
"9. c #A5602B",
"0. c #B3632B",
"q. c #A66536",
"w. c #B86E3C",
"e. c #C65F00",
"r. c #C36201",
"t. c #CA6501",
"y. c #CF6800",
"u. c #D36900",
"i. c #D66802",
"p. c #C3661B",
"a. c #CC691B",
"s. c #C56513",
"d. c #D96E0B",
"f. c #E37100",
"g. c #E87100",
"h. c #C34321",
"j. c #C74C2C",
"k. c #D04223",
"l. c #C85337",
"z. c #EC4924",
"x. c #FF4827",
"c. c #FD5432",
"v. c #FF5B37",
"b. c #F55031",
"n. c #C56C2D",
"m. c #CD6D29",
"M. c #C46927",
"N. c #D97127",
"B. c #C46E34",
"V. c #D27433",
"C. c #D37639",
"Z. c #CD6937",
"A. c #E57E3D",
"S. c #E67C37",
"D. c #BE7347",
"F. c #BD7D57",
"G. c #B06C42",
"H. c #87766E",
"J. c #A57661",
"K. c #FF5247",
"L. c #DA7842",
"P. c #C37D55",
"I. c #E17C43",
"U. c #E77642",
"Y. c #F67943",
"T. c #FF6E5A",
"R. c #FF6A42",
"E. c #F96C65",
"W. c #FB736D",
"Q. c #FD7D78",
"!. c #D94743",
"~. c #F78437",
"^. c #EF843E",
"/. c #BA8F7F",
"(. c #DE864F",
"). c #E98243",
"_. c #EA874C",
"`. c #F28545",
"'. c #F3864C",
"]. c #F38A4D",
"[. c #F98A4E",
"{. c #EA8C57",
"}. c #F48C53",
"|. c #FC8C52",
" X c #F58755",
".X c #EF915A",
"XX c #FF9255",
"oX c #F4925E",
"OX c #FE965D",
"+X c #FF995F",
"@X c #DF9268",
"#X c #DA9371",
"$X c #E6966A",
"%X c #FB9560",
"&X c #FF9B64",
"*X c #FF9E69",
"=X c #F39966",
"-X c #FF827D",
";X c #F29A72",
":X c #ED9E73",
">X c #FFA26C",
",X c #FFA86F",
"<X c #ECA27A",
"1X c #F4A276",
"2X c #FEA474",
"3X c #F4A67C",
"4X c #FEA679",
"5X c #FFAA7C",
"6X c #FFAA74",
"7X c #FFB17E",
"8X c #FF8781",
"9X c #FF8B87",
"0X c #FF9691",
"qX c #FFAD82",
"wX c #FDAF8F",
"eX c #FFB284",
"rX c #FFB886",
"tX c #FFBA8A",
"yX c #FEB48D",
"uX c #FFB797",
"iX c #CFB5B2",
"pX c #FFBAA1",
"aX c #E4BAB1",
"sX c #FFC692",
"dX c #FFCC97",
"fX c #FEC7A7",
"gX c #FFCBB0",
"hX c #BFCCCF",
"jX c #D8CAC9",
"kX c #FFDBDC",
"lX c #E3D8D6",
"zX c #FCE3DC",
"xX c #FFE9E4",
"cX c #FAE8E8",
"vX c #FFF9F8",
"bX c #F2F1ED",
"nX c None",
/* pixels */
"nXnXnXnXnXnXnXnXnXnXnXnXnXnXnXnXnXnXnXnXnXnXnXnXnXnXnXnXnXnXnXnXnXnXnXnXnXnXnXnXnXnXnXnXnXnXnXnXnXnXnXnXnXnXnXnXnXnXnXnXnXnXnXnX",
"nXnXnXnXnXnXnXnXnXnXnXnXnXnXnXnXnXnXnXnXnXnXnXnXnXnXnXnXnXnXnXnXnXnXnXnXnXnXnXnXnXnXnXnXnXnXnXnXnXnXnXnXnXnXnXnXnXnXnXnXnXnXnXnX",
"nXnXnXnXnXnXnXnXnXnXnXnXnXnXnXnXnXnXnXnXnXnXnXnXnXnXnXnXnXnXnXnXnXnXnXnXnXnXnXnXnXnXnXnXnXnXnXnXnXnXnXnXnXnXnXnXnXnXnXnXnXnXnXnX",
"nXnXnXnXnXnXnXnXnXnXnXnXnXnXnXnXnXnXnXnXnXnXnXnXnXnXnXnXnXnXnXnXnXnXnXnXnXnXnXnXnXnXnXnXnXnXnXnXnXnXnXnXnXnXnXnXnXnXnXnXnXnXnXnX",
"nXnXnXnXnXnXnXnXnXnXnXnXnXnXnXnXnXnXnXnXnXnXnXnXnXnXnXnXC C C C C C C C nXnXnXnXnXnXnXnXnXnXnXnXnXnXnXnXnXnXnXnXnXnXnXnXnXnXnXnX",
"nXnXnXnXnXnXnXnXnXnXnXnXnXnXnXnXnXnXnXnXnXnXnXnXnXnXnXnXE.Q.W.Q.9X0X0X8XnXnXnXnXnXnXnXnXnXnXnXnXnXnXnXnXnXnXnXnXnXnXnXnXnXnXnXnX",
"nXnXnXnXnXnXnXnXnXnXnXnXnXnXnXnXnXnXnXnXnXnXnXnX! L C W.aXjXiXlXcXvXvXkX9XC A / nXnXnXnXnXnXnXnXnXnXnXnXnXnXnXnXnXnXnXnXnXnXnXnX",
"nXnXnXnXnXnXnXnXnXnXnXnXnXnXnXnXnXnXnXnXnXnXnXnX~ L C E.aXjXiXjXcXvXvXkX-XC L ~ nXnXnXnXnXnXnXnXnXnXnXnXnXnXnXnXnXnXnXnXnXnXnXnX",
"nXnXnXnXnXnXnXnXnXnXnXnXnXnXnXnXnXnXnXnXnXnX~ ~ ~ ~ P b.E.W.E.Q.8X9X0X-XK.S ! ! ! ~ nXnXnXnXnXnXnXnXnXnXnXnXnXnXnXnXnXnXnXnXnXnX",
"nXnXnXnXnXnXnXnXnXnXnXnXnXnXnXnXnXnXnXnXnXnX~ ^ ~ ~ R ( V V V V V V V B D ) ~ / ^ ~ nXnXnXnXnXnXnXnXnXnXnXnXnXnXnXnXnXnXnXnXnXnX",
"nXnXnXnXnXnXnXnXnXnXnXnXnXnXnXnXnXnXnXnX! ~ ~ / ~ E J b v c c x c c x x y H E ^ ^ ~ ~ ! nXnXnXnXnXnXnXnXnXnXnXnXnXnXnXnXnXnXnXnX",
"nXnXnXnXnXnXnXnXnXnXnXnXnXnXnXnXnXnXnXnX~ ^ E R R I b 4 6 5 5 5 5 5 4 6 4 y Y R R E / ~ nXnXnXnXnXnXnXnXnXnXnXnXnXnXnXnXnXnXnXnX",
"nXnXnXnXnXnXnXnXnXnXnXnXqXqXqXqXnXnXnXnX/ ! J n m v q 8 0 5 5 5 5 5 8 8 8 q q n b J ~ ~ nXnXnXnXqXqXqXqXnXnXnXnXnXnXnXnXnXnXnXnX",
"nXnXnXnXnXnXnXnXnXnXnXnX4XsXdXqXnXnXnXnX/ E v 2 3 3 e e 7 z h.j.j.h.j e e h 3 3 2 b E ~ nXnXnXnXqXdXsX4XnXnXnXnXnXnXnXnXnXnXnXnX",
"nXnXnXnXnXnXqXqXqXeXeX5X&X,XtXeXnXnXP ~ ~ T x 2 & % & & o @.L. X[.L.<.o & & % i 2 c T ~ ~ P nXnXeXtX,X&X4XeXqXqXeXqXnXnXnXnXnXnX",
"nXnXnXnXnXnXqXsXtXeXtX5X&X&X5X5XnXnXT ^ / Q k.h.6.9.9.q.3.B.oX>X>XoXD.3.3.q.9.6.7.k.Q / ^ T nXnX5X7X&X&X7XrXeXrXsXqXnXnXnXnXnXnX",
"nXnXnXnXqXqXqXeX>XOX&X*X4X4X,X+XnXnXT / z 6.U.'.S.).].}._..X2X5X5X2X.X_.].].^.^.].I.6.k ~ E nXnX%X,X4X4X>X&XOX*XeXqXqXqXnXnXnXnX",
"nXnXnXnXqXsX5X2X&XOXXXOX6X5X,X+XnXnXW Q ..9.oX2X3X:XoX}.XX*X5XqXqX4X&XXX}.oX1X7X,X.X9...Q W nXnX&X,X5X6XOXXXOX&X2XqXsXqXnXnXnXnX",
"nXnXnXnXeXrX*X&X4X4XOXXXOX>XeXeXnXnXi ;.,.C.=XyXgXiXJ.2.'.*X5X5X>X&XOX'.2.J.iXaXyX=XC.;.*.i nXnXeXeX>X%XXXOX4X4X&X*XrXqXnXnXnXnX",
"nXnXnXnXqXeX*X&X4X4X*X+XXX&X6X3XnXnX+.O.=.C.=XpXlXhXH.l ).&X4X4XOX|.OX_...H.hXlXfX&XC.=.O.+.nXnX3X6X&XXXOX*X4X4X&X&XeXeXnXnXnXnX",
"nXnXnXnXqXtXqX2X*X*X4X4X&X|.I.(.5X1Xn.$.d w.=XgXvXbX/.*.`.OX%X%XOXXXXX`.h./.bXbXgX=Xq.d $.n.1X5X(.A.XX&X4X4X*X*X4XqXtXqXnXnXnXnX",
"nXnXnXnXqXtXqX2XOXOX4X4X%XA.>.n.6X5X{.M.` 3.(.uXxXzX#Xi.}.&X&X%X&X&X&X}.f.#XkXzXuX(.3.` M.{.7X4Xn.,.A.OX4X4XOXOX4XqXtXqXnXnXnXnX",
"nXnXnXnXqXeX2X&XOX+X>X&XA.s.O.9..X>X4X$X4._ 0.{.yXwX%X].>X5X5X5X5X4X5X2X].%XwXwX{.p._ 4.@X2X>X.X0...s.I.+X>X+X+X&X>XeXqXnXnXnXnX",
"nXnXnXnXeXeXOX`.].].].I.s.%.% 3.).*XqX3XG.d %.r.g.~.OX2XqXqX5X5XqXeXqX5X4XOX~.g.e.%.d G.3XeX&X_.3.% O.s.I.].].].`.OXeXeXnXnXnXnX",
"nXnXnXnXyXeX_.t.N.m.0.6.X.` + 6._.,XqX1XB.l ` O.t.).>XeXeX5X*X&X5XqXqXqXqX2X^.e.=.` l B.1XeX>X'.6.+ ` @.6.0.m.N.i._.eXyXnXnXnXnX",
"nXnXnXnX3X*XV.,.,.=., O - - + 6.I.+X4X1X{.n.+.% %.B.@X3X4X2XOXOX2XqXqXqX3X@Xn...$ +.n.{.1X4XOXI.6.+ - - O _ =.>.,.V.*X4XnXnXnXnX",
"nXnXnXnXL.S.a.>.O.} _ ; ; ; - @.2.^.XX*X4X@X3.  _ 3.4.D.oX>XOXOX%X2XeX<XP.5.@.a   3.@X6X*XOXA.s.@.- ; ; $ ; } O.,.a.A.C.nXnXnXnX",
"nXnXnXnXe.i.y.:.{ @ ; ; ' ; ; ` %.a.`.&X5X1XP.5.< + o =.A.|.}.}.'.}.>X$X6.o # < 5.P.3X5X&X`.a.O.} ; ' ; ' ; @ { :.y.i.>.nXnXnXnX",
"nXnXnXnXr.g.y.>.{ @ - ; ; ' ' ' , 0.}.&X&X*X1X@X5.o %.>.t.a.N.N.N.N.V.m.1.%.o 5.@X1X*X&X>X}.0., , > ' ; ; - @ { :.u.g.t.nXnXnXnX",
"nXnXnXnXr.r.t.r.-.{  .{ [ ; ' , O 3.I.XX|.&XeX3XF.9.m.N.C.V.:.;.,.>.M.V.N.n.q.F.3XeX&X].}.L.3.O ; ' ; ' {  .{ o.r.t.r.r.nXnXnXnX",
"nXnXnXnXnXnXt.f.r.>.>.;.{ @ ' ; - @.p.S.].&X5XqX3X$X}.}.*X$Xq.% d q.$X1X}.}.$X3XqX4X&X_.B.3.+.- ' ; - { ;.1.>.r.f.r.nXnXnXnXnXnX",
"nXnXnXnXnXnXr.t.t.u.y.r.-.[ [ ; < ` %.a.].&X4XeXqX5X*X>XqX:XG.    q.:X7X>X*X4XqXqX4X>X).3.* , ' ' ' [ =.r.y.u.t.t.r.nXnXnXnXnXnX",
"nXnXnXnXnXnXnXnXr.f.y.r.r.;. .- : _ d 0._.>XqX5X*X*X4X4X>X{.3.. . 3.{.>X4X4X*X*X5X5X>X_.6.+ , ' ; { ;.r.r.y.f.t.nXnXnXnXnXnXnXnX",
"nXnXnXnXnXnXnXnXr.t.r.u.u.1. .- ' - O 3.U.OX4X,XOXOX6X4X+X_.D.8.8.D.'.&X4X6X+XOX2X2XOXU.6.+ ; > -  .1.u.y.t.r.r.nXnXnXnXnXnXnXnX",
"nXnXnXnXnXnXnXnXnXnXr.g.f.r. .@ ; ; = <.z.R.OX>X&X+X&X+XXXOX:X:X<X$XOXXX&X&X+X+X>XOXR.z.<.= ; ; -  .r.f.f.r.nXnXnXnXnXnXnXnXnXnX",
"nXnXnXnXnXnXnXnXnXnXr.r.t.>.-.#.[ ; $ l B x.R.|.'.}.|.OX+X*X5XeXqX5X>X%XOX|.}.'.|.Y.) B l < ; ' { o.1.t.t.r.nXnXnXnXnXnXnXnXnXnX",
"nXnXnXnXnXnXnXnXnXnXnXnXnXnXr.t.o.a i F W ^ c.b.k.Z. X*X5XqX>X>X&X2X5X5X>X[.l.k.b.c.^ W F i $ X.t.1.nXnXnXnXnXnXnXnXnXnXnXnXnXnX",
"nXnXnXnXnXnXnXnXnXnXnXnXnXnXu.>.{ a e v Y R A N 8 z U.oX;X<X XY.Y.{.;X<XoXA.z 9 N A W Y c e s #.1.u.nXnXnXnXnXnXnXnXnXnXnXnXnXnX",
"nXnXnXnXnXnXnXnXnXnXnXnXnXnXnXnX' | h q y b b q 5 r h.j.l.l.j.h.h.j.l.l.l.h.r 5 q v n y q h | [ nXnXnXnXnXnXnXnXnXnXnXnXnXnXnXnX",
"nXnXnXnXnXnXnXnXnXnXnXnXnXnXnXnX: | h 8 q x 9 x n b 5 5 5 5 5 5 5 4 5 5 4 8 b n y x 9 9 9 j | : nXnXnXnXnXnXnXnXnXnXnXnXnXnXnXnX",
"nXnXnXnXnXnXnXnXnXnXnXnXnXnXnXnX:  .p x N V B V A Y y 2 5 5 8 0 0 8 5 5 4 y Y R Z V V N 9 g | < nXnXnXnXnXnXnXnXnXnXnXnXnXnXnXnX",
"nXnXnXnXnXnXnXnXnXnXnXnXnXnXnXnX' l k K c.T.8X-XK.A M n n n t t 0 t n n n M W ) c.T.9XQ.!.8 l ' nXnXnXnXnXnXnXnXnXnXnXnXnXnXnXnX",
"nXnXnXnXnXnXnXnXnXnXnXnXnXnXnXnXp n N b.|.uXxXkX-XC A R R I y 2 4 u I R R W Z c.|.uXxXkXQ.N b 3 nXnXnXnXnXnXnXnXnXnXnXnXnXnXnXnX",
"nXnXnXnXnXnXnXnXnXnXnXnXnXnXnXnXv D C v.%XfXvXxX-XC P ~ ^ E J u n H R ^ ~ E C v.%XfXvXxX8XC B v nXnXnXnXnXnXnXnXnXnXnXnXnXnXnXnX",
"nXnXnXnXnXnXnXnXnXnXnXnXnXnXnXnXE T C c.|.qXfXpXT.C P ~ ~ E R R U R ~ ~ E E Z v.|.qXfXpXT.C P E nXnXnXnXnXnXnXnXnXnXnXnXnXnXnXnX",
"nXnXnXnXnXnXnXnXnXnXnXnXnXnXnXnXQ ^ I b.Y. X=X'.b.Z ~ ~ ~ ~ ~ ~ ~ ^ ~ ~ ~ E A b.Y.'..X Xb.( ! Q nXnXnXnXnXnXnXnXnXnXnXnXnXnXnXnX",
"nXnXnXnXnXnXnXnXnXnXnXnX- - = [ f <.l <.h.j.j.j.z m E ~ ~ ~ ~ ~ ~ ~ ~ ~ ~ R M k h.j.l.j.<.&.<.| a 1 - - nXnXnXnXnXnXnXnXnXnXnXnX",
"nXnXnXnXnXnXnXnXnXnXnXnX .;.o.o.X.[ 1 $ 3 4 5 5 9 G Y R ~ ~ ~ ~ ~ ~ ~ E E Y m 0 5 5 5 2 + 1 > { @.-.;. .nXnXnXnXnXnXnXnXnXnXnXnX",
"nXnXnXnXnXnXnXnXnXnX-  .:.t.r.r.r.;.{ ; _ i 7 c U U m m R / / ~ ~ ~ / / G n U R c 7 i $ - { :.1.r.r.t.:. .- nXnXnXnXnXnXnXnXnXnX",
"nXnXnXnXnXnXnXnXnXnX< -.:.r.1.1.r.:.{ - : ; i F U R m n Y R R R R R R Y m m R U F i ' : - { :.e.1.1.r.:.-.- nXnXnXnXnXnXnXnXnXnX",
"nXnXnXnXnXnXnXnX' > - ' { { { {  . .; - - ; ; f k H R R H n n n n n n H R R M k f ' ; - - ;  . . .{  .{ ; ; ; ' nXnXnXnXnXnXnXnX",
"nXnXnXnXnXnXnXnX' o.X. .{ { { { ; ; {  .o.{ : ] p v U U u 7 6 6 6 6 4 u U U v p a >  . .o.{ ' - { { { { o.X.o.; nXnXnXnXnXnXnXnX",
"nXnXnXnXnXnXnXnX- o.:.r.r.1.r.:.{ [ :.r.r.:.{ a h 0 m n y w t t t t w t n n q e a #.:.r.r.:.[ [ ;.r.>.r.r.:.o.- nXnXnXnXnXnXnXnX",
"nXnXnXnXnXnXnXnX- o.:.r.1.1.r.;.[ { :.e.r.:.{ s r 8 6 6 w t t t t t t t 6 6 8 h s { :.1.r.;.{ { :.r.r.>.r.:.o.; nXnXnXnXnXnXnXnX",
"nXnXnXnXnXnXnXnX'  . . .{ {  . .; ; { { { { > s r 9 0 t t t b b b y t t t 0 8 h s > [ {  .{ ; ; {  . .{  . .{ ; nXnXnXnXnXnXnXnX",
"nXnXnXnXnXnXnXnX' +.; ; { { ; ;  . .{ { { { ' ' i r t t t t t t t t t y t t r j s > { X.{ {  .{ ; ; { { ; ; +.' nXnXnXnXnXnXnXnX",
"nXnXnXnXnXnXnXnX' X.;  .>.:.{ { :.e.>.1.r.:. .; ' f h q m t nXnXnXnXt m q h f a -  .:.r.1.1.e.:.{ { :.:. .; @.' nXnXnXnXnXnXnXnX",
"nXnXnXnXnXnXnXnX> ; -  .>.:.{ { ;.e.1.1.r.:.{ - < ] h 9 0 t nXnXnXnXt 0 9 h ] : < { :.r.1.1.r.;.{ { >.>. .- ; ' nXnXnXnXnXnXnXnX",
"nXnXnXnXnXnXnXnXnXnX; {  .{ ' ' {  .{  . .{ ; - : | F 0 nXnXnXnXnXnXnXnX0 G | : - ; {  .{ { { { ; '  . .{ ; nXnXnXnXnXnXnXnXnXnX",
"nXnXnXnXnXnXnXnXnXnX' #.; ; ; ' [  .{ [ ; ;  . .[ s h 9 nXnXnXnXnXnXnXnX9 h s [  . .; ; { {  .{ [ ; - > { ' nXnXnXnXnXnXnXnXnXnX",
"nXnXnXnXnXnXnXnXnXnX; @.[ ; ; { :.r.r.:.[ { >.>.-.; nXnXnXnXnXnXnXnXnXnXnXnX; -.1.:.{ { ;.r.1.:. .- ' [ @.> nXnXnXnXnXnXnXnXnXnX",
"nXnXnXnXnXnXnXnXnXnX' ' ' ' <  .:.r.r.:.{ { >.>. .< nXnXnXnXnXnXnXnXnXnXnXnX-  .>.>.{ [ :.r.r.:.{ < ' ' ' ' nXnXnXnXnXnXnXnXnXnX",
"nXnXnXnXnXnXnXnXnXnXnXnX' { ; [ { X.X.{ ' [ o. .nXnXnXnXnXnXnXnXnXnXnXnXnXnXnXnX .o.[ [  . .o.{ [ ' { ; nXnXnXnXnXnXnXnXnXnXnXnX",
"nXnXnXnXnXnXnXnXnXnXnXnX> { [ ; ; - ; ; ' ' [ - nXnXnXnXnXnXnXnXnXnXnXnXnXnXnXnX; [ ' ; ; - ; ; ; ' +.' nXnXnXnXnXnXnXnXnXnXnXnX"
};
