/* XPM */
static char *result[] = {
/* columns rows colors chars-per-pixel */
"64 64 73 1 ",
"  c #484848",
". c #565656",
"X c #575959",
"o c #5C5C5B",
"O c #635E5C",
"+ c #62615E",
"@ c #5F6060",
"# c #646563",
"$ c #696565",
"% c #666867",
"& c #686866",
"* c #6A6769",
"= c #676968",
"- c #6B6B6C",
"; c #706B6E",
": c #6F6E71",
"> c #726E71",
", c #6E7273",
"< c #747375",
"1 c #7A7177",
"2 c #757578",
"3 c #7B757C",
"4 c #747A7C",
"5 c #7A797C",
"6 c #80747D",
"7 c #777E81",
"8 c #7E7A81",
"9 c #817780",
"0 c #837D86",
"q c #857F88",
"w c #7B8286",
"e c #7D868A",
"r c #7E898E",
"t c #7F8B90",
"y c #848086",
"u c #86828B",
"i c #88838D",
"p c #888790",
"a c #848B91",
"s c #8B8A94",
"d c #8C8E98",
"f c #918A94",
"g c #948F98",
"h c #8C949C",
"j c #8A989F",
"k c #91949E",
"l c #98919C",
"z c #8E9BA3",
"x c #9196A0",
"c c #929CA5",
"v c #939FA8",
"b c #989EA8",
"n c #95A4AD",
"m c #98A4AD",
"M c #96A6B0",
"N c #99A7B1",
"B c #97A8B1",
"V c #9AABB5",
"C c #9CAEB8",
"Z c #9EB1BC",
"A c #A0AFB9",
"S c #A0B3BE",
"D c #9FB7C1",
"F c #A2B6C1",
"G c #AAB6C2",
"H c #A6B9C4",
"J c #A8BBC6",
"K c #ABBECA",
"L c #ADC2CD",
"P c #B1C6D1",
"I c #B4C9D5",
"U c #B6CCD8",
"Y c None",
/* pixels */
"YYYYYYYYYYYYYYYYYYYYYYYYYYYYYYYYYYYYYYYYYYYYYYYYYYYYYYYYYYYYYYYY",
"YYYYYYYYYYYYYYYYYYYYYYYYYYYYYYYYYYYYYYYYYYYYYYYYYYYYYYYYYYYYYYYY",
"YYYYYYYYYYYYYYYYYYYYYYYYYYYYYYYYYYYYYYYYYYYYYYYYYYYYYYYYYYYYYYYY",
"YYYYYYYYYYYYYYYYYYYYYYYYYYYYYYYYYYYYYYYYYYYYYYYYYYYYYYYYYYYYYYYY",
"YYYYYYYYYYYYYYYYYYYYYYYYYYYYYYYYYYYYYYYYYYYYYYYYYYYYYYYYYYYYYYYY",
"YYYYYYYYYYYYYYYYYYYYYYYYYYYYYYYYYYYYYYYYYYYYYYYYYYYYYYYYYYYYYYYY",
"YYYYYYYYYYYYYYYYYYYYYYYYYYYYYYYYYYYYYYYYYYYYYYYYYYYYYYYYYYYYYYYY",
"YYYYYYYYYYYYYYYYYYYYYYYYYYYYYYYYYYYYYYYYYYYYYYYYYYYYYYYYYYYYYYYY",
"YYYYYYYYYYYYYYYYYYYYYYYYYYYYYYYYYYYYYYYYYYYYYYYYYYYYYYYYYYYYYYYY",
"YYYYYYYYYYYYYYYYYYYYYYYYYYYYYYYYYYYYYYYYYYYYYYYYYYYYYYYYYYYYYYYY",
"YYYYYYYYYYYYYYYYYYYYYYYYYYYYYYYYYYYYYYYYYYYYYYYYYYYYYYYYYYYYYYYY",
"YYYYYYYYYYYYYYYYYYYYYYYYYYYYYYYYYYYYYYYYYYYYYYYYYYYYYYYYYYYYYYYY",
"YYYYYYYYYYYYYYYYYYYYYYYYYYYYYYYYYYYYYYYYYYYYYYYYYYYYYYYYYYYYYYYY",
"YYYYYYYYYYYYYYYYYYYYYYYYYYYYYYYYYYYYYYYYYYYYYYYYYYYYYYYYYYYYYYYY",
"YYYYYYYYYYYYYYYYYYYYYYYYYYYYYYYYYYYYYYYYYYYYYYYYYYYYYYYYYYYYYYYY",
"YYYYYYYYYYYYYYYYYYYYYYYYYYYYYYYYYYYYYYYYYYYYYYYYYYYYYYYYYYYYYYYY",
"YYYYYYYYYYYYYYYYYYYYYYYYYYYYYYYYYYYYYYYYYYYYYYYYYYYYYYYYYYYYYYYY",
"YYYYYYYYYYYYYYYYYYYYYYYYYYYYYYYYYYYYYYYYYYYYYYYYYYYYYYYYYYYYYYYY",
"YYYYYYYYYYYYYYYYYYYYYYYYYYYYYYCCCCYYYYYYYYYYYYYYYYYYYYYYYYYYYYYY",
"YYYYYYYYYYYYYYYYYYYYYYYYYYYYYYCIIVYYYYYYYYYYYYYYYYYYYYYYYYYYYYYY",
"YYYYYYYYYYYYYYYYYYYYYYYYCCVCVCCZSCVCCCCCCCCVYYYYYYYYYYYYYYYYYYYY",
"YYYYYYYYYYYYYYYYYYYYYYYYVIJJJHZCCZHJJHHJJKUCYYYYYYYYYYYYYYYYYYYY",
"YYYYYYYYYYYYYYYYYYYYYYCVCSZSDZZCVCCSZCZZSFLZYYYYYYYYYYYYYYYYYYYY",
"YYYYYYYYYYYYYYYYYYYYYYCPSVNnMmmMVCCVCCCVmnAmYYYYYYYYYYYYYYYYYYYY",
"YYYYYYYYYYYYYYYYYYYYSSCFSBhpssixBSZZZZZBr5ssu0YYYYYYYYYYYYYYYYYY",
"YYYYYYYYYYYYYYYYYYYYmJVmNci6993icBmmnnBz,O<0gqYYYYYYYYYYYYYYYYYY",
"YYYYYYYYYYYYYYYYYYZMhsssspq0000usssssssu>%=2quqqYYYYYYYYYYYYYYYY",
"YYYYYYYYYYYYYYYYYYSKd6609000000099900905:%%-3ql0YYYYYYYYYYYYYYYY",
"YYYYYYYYYYYYYYYYYYFHd90000q0q0u00qq000q0:&==-1uuq0YYYYYYYYYYYYYY",
"YYYYYYYYYYYYYYYYYYBNs9000q000q00q0000085,&=%#-3ulqYYYYYYYYYYYYYY",
"YYYYYYYYYYYYYYYYZmdiu00qq00uu0q0000qq8<:-&+++#-3suYYYYYYYYYYYYYY",
"YYYYYYYYYYYYYYYYZKkq00000qq0000u0q0qq8:#&-4w72=-00YYYYYYYYYYYYYY",
"YYYYYYYYYYYYCCCVCZVci3800q0qqqqq0qq0i8:%#4znMj,o<,YYYYYYYYYYYYYY",
"YYYYYYYYYYYYCIJHCCZNhpppq0q0080q000qq8:#O7nFDMa25-YYYYYYYYYYYYYY",
"YYYYYYYYYYVCVSZCCCCCNnMcpqq0><8qq0q0i8:%o7MFZCVcg3YYYYYYYYYYYYYY",
"YYYYYYYYYYCISCCVCCCCCCDBp382=:8q0q0qq8:##4zMMMBng3YYYYYYYYYYYYYY",
"YYYYYYYYYYVLZCCCCCZCCCZv7+$*#,8qq00qi8>##<psspw42$YYYYYYYYYYYYYY",
"YYYYYYYYYYVJZCCVNMMNVVZne242#:0q00q005:##:80q1$%77YYYYYYYYYYYYYY",
"YYYYYYYYYYZLZZZNhpidMZVVMnMj:#8i0908<:--#>8qq5+,nmYYYYYYYYYYYYYY",
"YYYYYYYYYYmZNMNc030dMZZVMVZMt<88psi8:#==$*8qq04aFFYYYYYYYYYYYYYY",
"YYYYYYYYFBkssssu>7zCCZFMweBCVj:2vMs3:%#=#*309icCHZYYYYYYYYYYYYYY",
"YYYYYYYYNGs69903%2zVNMNz:-zVDMewvnp8:##:47pspdMCJCYYYYYYYYYYYYYY",
"YYYYYYYYsli000q8-:ussssu::0xBCCze808:#o7zMVNCnhxJFYYYYYYYYYYYYYY",
"YYYYYYYY0iqqqqq8--809905-:1pcBVz,+80<:*8vCMMMv80nnYYYYYYYYYYYYYY",
"YYYYYYYY0fq0qqq8:-8qq0q8--5qppw2=-808880pa7774<:44:&YYYYYYYYYYYY",
"YYYYYYYYqsq00qq8-:8q0qq8<<8q03%#-<0qqqqq03;$++###$2-YYYYYYYYYYYY",
"YYYYYYYYufq00qq0::8qq0q0800qq8-*5000q000q00<-$#-&-<-YYYYYYYYYYYY",
"YYYYYYYY9pqqq085*-800qq0qq00q9<>8000qqq00qq0<:-=--<=YYYYYYYYYYYY",
"YYYYYYYY-8yii9>#+#-40yu000q0q005<<3080900qqq05:&&-5-YYYYYYYYYYYY",
"YYYYYYYY&<50887472&=3000yq0q0qq8$-udsssiu00005:&-=%%YYYYYYYYYYYY",
"YYYYYYYY-4<--7zBBj,O=<0uu0q0qqq8+,zBBBVns0q02---2&XYYYYYYYYYYYYY",
"YYYYYYYY%#&&+4cSSBa,=-30000u0qq82amSCBBni3q8-%--&#YYYYYYYYYYYYYY",
"YYYYYYYYY.=<-5sbAZVz2#-<9u00006izVZVhsdi2<00,=2=XYYYYYYYYYYYYYYY",
"YYYYYYYYYY#*%*>ucVVc4#%,8uu00uihMVBcu163--88,&&@YYYYYYYYYYYYYYYY",
"YYYYYYYYYYY YYY>pca72::<0iqu0smnksdi2-<<,<<22&oYYYYYYYYYYYYYYYYY",
"YYYYYYYYYYYYYYYY11#o#&#-50093pnnu333:#######%#YYYYYYYYYYYYYYYYYY",
"YYYYYYYYYYYYYYYYYYYYYYYo-55<<5ww5<<<5=XYYYYYYYYYYYYYYYYYYYYYYYYY",
"YYYYYYYYYYYYYYYYYYYYYYYY@###%+Oo####&@YYYYYYYYYYYYYYYYYYYYYYYYYY",
"YYYYYYYYYYYYYYYYYYYYYYYYYYYYYYYYYYYYYYYYYYYYYYYYYYYYYYYYYYYYYYYY",
"YYYYYYYYYYYYYYYYYYYYYYYYYYYYYYYYYYYYYYYYYYYYYYYYYYYYYYYYYYYYYYYY",
"YYYYYYYYYYYYYYYYYYYYYYYYYYYYYYYYYYYYYYYYYYYYYYYYYYYYYYYYYYYYYYYY",
"YYYYYYYYYYYYYYYYYYYYYYYYYYYYYYYYYYYYYYYYYYYYYYYYYYYYYYYYYYYYYYYY",
"YYYYYYYYYYYYYYYYYYYYYYYYYYYYYYYYYYYYYYYYYYYYYYYYYYYYYYYYYYYYYYYY",
"YYYYYYYYYYYYYYYYYYYYYYYYYYYYYYYYYYYYYYYYYYYYYYYYYYYYYYYYYYYYYYYY"
};
